<svg xmlns="http://www.w3.org/2000/svg" xmlns:xlink="http://www.w3.org/1999/xlink" width="743.626" height="92.051" viewBox="0 0 743.626 92.051"><defs><linearGradient id="a" x1="1" y1="0.5" x2="0" y2="0.5" gradientUnits="objectBoundingBox"><stop offset="0" stop-color="#cb8b33"/><stop offset="1" stop-color="#462e0c"/></linearGradient><linearGradient id="b" x1="0" y1="0.777" x2="1" y2="0.772" xlink:href="#a"/><clipPath id="c"><path d="M0,0V91.068l27.2-8.762L27.1,8.588ZM30,0V91.068l27.2-8.762L57.1,8.588ZM60.306,0V91.068L87.51,79.75l-.1-68.7Z" fill="url(#a)"/></clipPath><clipPath id="e"><path d="M55.653,0,28.547,11.046l-.1,68.7,27.2,11.319ZM85.965,0,58.859,8.588l-.1,73.718,27.2,8.762Zm29.995,0-27.1,8.588-.1,73.718,27.2,8.762Z" transform="translate(-28.449)" fill="url(#b)"/></clipPath><clipPath id="g"><rect width="548.565" height="92.051" fill="none"/></clipPath></defs><g transform="translate(-45 -44.729)"><g transform="translate(45 44.911)" clip-path="url(#c)"><rect width="87.51" height="91.068" transform="translate(0 0)" fill="url(#a)"/></g><g transform="translate(135.221 44.911)" clip-path="url(#e)"><rect width="87.51" height="91.068" transform="translate(0 0)" fill="url(#b)"/></g><rect width="1.126" height="91.569" transform="translate(347.41 45.157)" fill="#fff"/><path d="M2.857,8.914H8V43.621h7.31v4.985H2.857Z" transform="translate(51.206 64.267)" fill="#fff"/><rect width="5.144" height="39.693" transform="translate(85.621 73.179)" fill="#fff"/><path d="M20.694,8.914h5.252l3.035,26.7h.108l2.978-26.7h5.09L32.121,48.607H25.73Z" transform="translate(89.933 64.267)" fill="#fff"/><rect width="5.144" height="39.693" transform="translate(145.221 73.179)" fill="#fff"/><path d="M39.88,48.606V8.914h4.6l5.36,22.314H49.9l-.216-8.182V8.914h4.871V48.606h-4.6L44.593,26.3h-.054l.216,8.179V48.606Z" transform="translate(131.593 64.265)" fill="#fff"/><path d="M64.3,27.866V43.84a4.807,4.807,0,0,1-4.763,4.767H54.117a4.805,4.805,0,0,1-4.763-4.767V13.681a4.805,4.805,0,0,1,4.763-4.767h5.306a4.808,4.808,0,0,1,4.767,4.767v9.907H59.153V15.143A1.224,1.224,0,0,0,57.907,13.9H55.741A1.221,1.221,0,0,0,54.5,15.143V42.378a1.222,1.222,0,0,0,1.243,1.246h2.166a1.225,1.225,0,0,0,1.246-1.246V32.8H56.715V27.866Z" transform="translate(152.164 64.265)" fill="#fff"/><path d="M47.774,14.394a6.283,6.283,0,0,0-2.99-.838A2.916,2.916,0,0,0,41.707,16.3a2.831,2.831,0,0,0,.01.465c0,2.012,1.052,3.268,3.067,3.268a6.069,6.069,0,0,0,3.172-.918l.858,3.37a10.563,10.563,0,0,1-4.224.838c-4.17,0-6.819-2.174-6.819-6.481,0-4.039,2.6-6.571,6.975-6.571a10.561,10.561,0,0,1,4.205.874Z" transform="translate(322.701 67.205)" fill="#fff"/><path d="M55.147,22.821H51.264l-.778-2.33H46.269l-.743,2.33H41.662l4.282-12.456h5.005Zm-6.727-9.644-1.4,4.361h2.71Z" transform="translate(331.217 67.408)" fill="#fff"/><path d="M58.652,13.613l-2.174,9.009H52.216l-2.193-8.968-.035,9.166H46.378l.434-12.456h5.643l1.954,8.888,1.954-8.888h5.576l.44,12.456H58.691Z" transform="translate(341.537 67.408)" fill="#fff"/><path d="M57.174,19.47h-1v3.351H52.248V10.365h5.184c3.526,0,5.541,1.795,5.541,4.463,0,2.99-1.993,4.645-5.8,4.645m-.038-6.118H56.058V16.6l1-.022c1.4-.019,2.031-.577,2.031-1.674,0-1.02-.679-1.556-1.951-1.556" transform="translate(354.38 67.408)" fill="#fff"/><path d="M69.135,22.821H65.248l-.778-2.33H60.253l-.743,2.33H55.646l4.282-12.456h5.005ZM62.4,13.177l-1.4,4.361h2.713Z" transform="translate(361.814 67.408)" fill="#fff"/><rect width="3.928" height="12.452" transform="translate(432.45 77.771)" fill="#fff"/><path d="M69.2,23.323c-4.167,0-6.934-2.289-6.934-6.478,0-4.141,2.652-6.571,6.975-6.571A10.776,10.776,0,0,1,74.2,11.352l-1.215,3.226a7.188,7.188,0,0,0-3.587-1.02,3,3,0,0,0-3.229,3.2c0,2.2.956,3.411,3.15,3.411a5.02,5.02,0,0,0,1.61-.242v-1.25H68.086v-3.01h6.335v6.516A11.662,11.662,0,0,1,69.2,23.32" transform="translate(376.305 67.202)" fill="#fff"/><path d="M75.588,10.365h3.647V22.941h-4.16l-4.492-7.176v7.052H66.935V10.365h4.227l4.419,7.074Z" transform="translate(386.516 67.408)" fill="#fff"/><path d="M72.984,10.365h7.69v1.588H74.68V16h4.961v1.575H74.68v5.238h-1.7Z" transform="translate(399.745 67.408)" fill="#fff"/><path d="M82.181,23.326a6.061,6.061,0,0,1-6.274-5.844,6.4,6.4,0,0,1,.013-.654A6.219,6.219,0,0,1,81.8,10.283c.128-.01.255-.013.386-.01a6.048,6.048,0,0,1,6.268,5.815,6.511,6.511,0,0,1-.013.66,6.233,6.233,0,0,1-5.882,6.564q-.187.01-.373.01m-.045-11.534c-2.649,0-4.5,1.973-4.5,4.961,0,3.067,1.849,5.059,4.578,5.059,2.652,0,4.524-1.993,4.524-4.986,0-3.067-1.871-5.04-4.6-5.04" transform="translate(406.139 67.2)" fill="#fff"/><path d="M82.468,22.82h-1.7V10.364h3.724c3.009,0,4.588,1.438,4.588,3.65A3.611,3.611,0,0,1,86.268,17.6l3.37,5.222H87.623L84.6,17.878l-2.13.14Zm2.053-6.357c1.632-.061,2.869-.838,2.869-2.372,0-1.473-1.2-2.171-3.089-2.171H82.468v4.607Z" transform="translate(416.785 67.406)" fill="#fff"/><path d="M92.856,13.575V22.82H88.928V13.575H85.163v-3.21H96.621v3.21Z" transform="translate(426.4 67.408)" fill="#fff"/><path d="M97.362,22.818V18.173H93.294v4.645H89.37V10.365h3.924v4.543h4.068V10.365h3.921V22.818Z" transform="translate(435.604 67.411)" fill="#fff"/><path d="M94.028,22.818V10.365h9.727v3.048h-5.9v1.632h4.664V18.1H97.853v1.671h5.9v3.051Z" transform="translate(445.796 67.411)" fill="#fff"/><path d="M109.02,10.365h3.647V22.941H108.5l-4.486-7.176v7.052h-3.647V10.365h4.224l4.422,7.074Z" transform="translate(459.674 67.408)" fill="#fff"/><path d="M118.253,22.821h-3.889l-.778-2.33h-4.218l-.743,2.33h-3.864l4.281-12.456h5.005Zm-6.733-9.644-1.4,4.361h2.719Z" transform="translate(469.281 67.408)" fill="#fff"/><path d="M116.674,13.575V22.82h-3.928V13.575h-3.765v-3.21h11.458v3.21Z" transform="translate(478.514 67.408)" fill="#fff"/><rect width="3.928" height="12.452" transform="translate(600.917 77.771)" fill="#fff"/><path d="M121.811,23.33c-3.73,0-6.634-2.152-6.634-6.5a6.338,6.338,0,0,1,6.118-6.561,5.735,5.735,0,0,1,.574.006c3.724,0,6.634,2.133,6.634,6.478a6.357,6.357,0,0,1-6.134,6.577,5.421,5.421,0,0,1-.558,0m0-9.963c-1.814,0-2.694,1.4-2.694,3.389,0,2.05.937,3.481,2.751,3.481,1.795,0,2.691-1.412,2.691-3.4,0-2.05-.937-3.465-2.748-3.465" transform="translate(492.06 67.195)" fill="#fff"/><path d="M128.747,10.365h3.647V22.941h-4.16l-4.486-7.176v7.052H120.1V10.365h4.227l4.419,7.074Z" transform="translate(502.837 67.408)" fill="#fff"/><path d="M137.97,22.821h-3.883l-.778-2.33h-4.218l-.743,2.33h-3.861l4.278-12.456h5.005Zm-6.73-9.644-1.4,4.361h2.713Z" transform="translate(512.444 67.408)" fill="#fff"/><path d="M129.251,22.818V10.365h3.928v9.242h4.8v3.21Z" transform="translate(522.865 67.411)" fill="#fff"/><path d="M146.1,13.613l-2.174,9.009h-4.262l-2.193-8.968-.035,9.166h-3.609l.437-12.456h5.643l1.951,8.888,1.954-8.888h5.576l.44,12.456h-3.685Z" transform="translate(532.88 67.408)" fill="#fff"/><path d="M145.444,23.117c-3.306,0-5.8-1.435-5.8-5.2V10.365h3.928v7.074c0,1.674.574,2.448,1.935,2.448,1.291,0,1.83-.615,1.83-2.35V10.365h3.905V17.6c0,3.845-2.391,5.518-5.8,5.518" transform="translate(545.607 67.408)" fill="#fff"/><path d="M150.625,19.425c0-.6-.877-.778-2.334-1.2-1.833-.52-4.144-1.4-4.144-3.924,0-2.432,1.7-4.026,5.1-4.026a10.964,10.964,0,0,1,5.024,1.1l-.622,3.21a10.976,10.976,0,0,0-4.384-1.135c-.759,0-1.2.159-1.2.657,0,.577,1.2.858,2.432,1.2,1.973.558,4.042,1.415,4.042,3.8,0,2.493-1.871,4.208-5.477,4.208a11.411,11.411,0,0,1-5.12-1.116l.6-3.207a10.874,10.874,0,0,0,4.584,1.157c.9,0,1.5-.2,1.5-.717" transform="translate(555.024 67.214)" fill="#fff"/><path d="M148.036,22.818V10.365h9.727v3.048h-5.9v1.632h4.664V18.1h-4.664v1.671h5.9v3.051Z" transform="translate(563.966 67.411)" fill="#fff"/><path d="M157.652,23.117c-3.306,0-5.8-1.435-5.8-5.2V10.365h3.928v7.074c0,1.674.574,2.448,1.935,2.448,1.291,0,1.83-.615,1.83-2.35V10.365h3.905V17.6c0,3.845-2.391,5.518-5.8,5.518" transform="translate(572.319 67.408)" fill="#fff"/><path d="M168.554,13.613l-2.174,9.009h-4.262l-2.193-8.971-.035,9.169H156.28l.437-12.456h5.643l1.951,8.888,1.954-8.888h5.576l.44,12.456H168.6Z" transform="translate(582.004 67.408)" fill="#fff"/><path d="M44.11,29.059a6.061,6.061,0,0,1-6.274-5.844,6.406,6.406,0,0,1,.013-.654,6.219,6.219,0,0,1,5.876-6.545c.128-.01.255-.013.386-.01a6.048,6.048,0,0,1,6.268,5.815,6.508,6.508,0,0,1-.013.66,6.233,6.233,0,0,1-5.882,6.564q-.186.01-.373.01m-.045-11.534c-2.649,0-4.5,1.973-4.5,4.961,0,3.067,1.849,5.059,4.578,5.059,2.652,0,4.524-1.993,4.524-4.986,0-3.067-1.871-5.04-4.6-5.04" transform="translate(322.839 79.745)" fill="#fff"/><path d="M42.7,16.1h7.69v1.588H44.4v4.046h4.957v1.575H44.4v5.241H42.7Z" transform="translate(333.483 79.951)" fill="#fff"/><path d="M60.126,28.553H56.239l-.771-2.33H51.244l-.743,2.33H46.637L50.919,16.1h5Zm-6.733-9.644L52,23.27h2.713Z" transform="translate(342.103 79.951)" fill="#fff"/><path d="M51.4,16.1h9.519v3.147H55.266v1.795H59.7v3.115H55.266v4.4H51.4Z" transform="translate(352.529 79.951)" fill="#fff"/><path d="M58.978,28.553H55.054V16.1h5.64c3.465,0,5.3,1.6,5.3,4.09a3.676,3.676,0,0,1-2.432,3.587l3.089,4.782H62.3l-2.228-3.787-1.1.1Zm1.275-6.5c1.192-.121,1.674-.577,1.674-1.588,0-.918-.539-1.377-1.951-1.377H58.9v2.99Z" transform="translate(360.519 79.951)" fill="#fff"/><rect width="3.928" height="12.452" transform="translate(429.103 96.049)" fill="#fff"/><path d="M71.284,20.126a6.285,6.285,0,0,0-2.994-.838,2.92,2.92,0,0,0-3.076,2.745,3.23,3.23,0,0,0,.013.465c0,2.012,1.049,3.268,3.064,3.268a6.08,6.08,0,0,0,3.175-.918l.854,3.37a10.567,10.567,0,0,1-4.227.838c-4.164,0-6.813-2.174-6.813-6.481,0-4.039,2.6-6.571,6.972-6.571a10.55,10.55,0,0,1,4.205.874Z" transform="translate(374.141 79.747)" fill="#fff"/><path d="M78.659,28.553H74.772l-.778-2.33H69.777l-.74,2.33H65.17L69.452,16.1h5.005Zm-6.733-9.644-1.4,4.361h2.713Z" transform="translate(382.654 79.951)" fill="#fff"/><path d="M78.584,16.1h3.647V28.674h-4.16L73.585,21.5V28.55h-3.65V16.1h4.227l4.419,7.074Z" transform="translate(393.078 79.951)" fill="#fff"/><path d="M88.986,28.553H85.1l-.778-2.33H80.1l-.746,2.33H75.494L79.776,16.1h5.005Zm-6.733-9.644-1.4,4.361h2.713Z" transform="translate(405.242 79.951)" fill="#fff"/><path d="M92.484,19.346,90.31,28.355H86.048l-2.193-8.968-.038,9.166H80.21L80.644,16.1h5.643l1.951,8.888L90.192,16.1h5.576l.44,12.456H92.523Z" transform="translate(415.562 79.951)" fill="#fff"/><path d="M86.082,28.55V16.1h9.727v3.048h-5.9v1.632h4.664v3.051H89.908V25.5h5.9V28.55Z" transform="translate(428.41 79.953)" fill="#fff"/><path d="M93.889,28.553H89.965V16.1H95.6c3.465,0,5.3,1.6,5.3,4.09a3.675,3.675,0,0,1-2.432,3.587l3.089,4.782H97.215l-2.228-3.787-1.1.1Zm1.275-6.5c1.192-.121,1.674-.577,1.674-1.588,0-.918-.539-1.377-1.951-1.377H93.81v2.99Z" transform="translate(436.906 79.951)" fill="#fff"/><rect width="3.928" height="12.452" transform="translate(540.398 96.049)" fill="#fff"/><path d="M106.192,20.126a6.283,6.283,0,0,0-2.99-.838,2.916,2.916,0,0,0-3.076,2.745,2.829,2.829,0,0,0,.01.465c0,2.012,1.052,3.268,3.067,3.268a6.069,6.069,0,0,0,3.172-.918l.858,3.37a10.563,10.563,0,0,1-4.224.838c-4.167,0-6.816-2.174-6.816-6.481,0-4.039,2.6-6.571,6.975-6.571a10.593,10.593,0,0,1,4.205.874Z" transform="translate(450.529 79.747)" fill="#fff"/><path d="M113.57,28.553h-3.886l-.778-2.33h-4.218l-.743,2.33h-3.864L104.363,16.1h5.005Zm-6.733-9.644-1.4,4.361h2.713Z" transform="translate(459.039 79.951)" fill="#fff"/><path d="M113.494,16.1h3.647V28.674h-4.164L108.492,21.5v7.055h-3.647V16.1h4.224l4.422,7.074Z" transform="translate(469.465 79.951)" fill="#fff"/><path d="M118.749,28.55V23.905h-4.068V28.55H110.76V16.1h3.921v4.543h4.068V16.1h3.924V28.55Z" transform="translate(482.406 79.953)" fill="#fff"/><rect width="3.928" height="12.452" transform="translate(608.018 96.049)" fill="#fff"/><path d="M124.056,25.158c0-.6-.877-.778-2.334-1.2-1.833-.52-4.144-1.4-4.144-3.924,0-2.432,1.7-4.026,5.1-4.026a10.951,10.951,0,0,1,5.021,1.1l-.618,3.21a10.976,10.976,0,0,0-4.384-1.135c-.759,0-1.2.159-1.2.657,0,.577,1.2.858,2.432,1.2,1.973.558,4.042,1.415,4.042,3.8,0,2.493-1.871,4.208-5.477,4.208a11.412,11.412,0,0,1-5.12-1.116l.6-3.207a10.875,10.875,0,0,0,4.584,1.157c.9,0,1.5-.2,1.5-.717" transform="translate(496.89 79.759)" fill="#fff"/><path d="M128.885,19.307v9.245h-3.928V19.307h-3.765V16.1H132.65v3.21Z" transform="translate(505.233 79.951)" fill="#fff"/><path d="M131.887,29.063c-3.727,0-6.634-2.152-6.634-6.5A6.343,6.343,0,0,1,131.374,16c.191-.006.383-.006.574.006,3.724,0,6.634,2.133,6.634,6.478a6.357,6.357,0,0,1-6.134,6.577,5.491,5.491,0,0,1-.561,0m0-9.963c-1.814,0-2.691,1.4-2.691,3.389,0,2.05.937,3.481,2.751,3.481,1.795,0,2.688-1.412,2.688-3.4,0-2.05-.934-3.465-2.748-3.465" transform="translate(514.108 79.74)" fill="#fff"/><path d="M134.1,28.553H130.18V16.1h5.64c3.472,0,5.3,1.6,5.3,4.09a3.675,3.675,0,0,1-2.432,3.587l3.089,4.782H137.43L135.2,24.768l-1.1.1Zm1.275-6.5c1.192-.121,1.674-.577,1.674-1.588,0-.918-.539-1.377-1.951-1.377h-1.078v2.99Z" transform="translate(524.897 79.951)" fill="#fff"/><path d="M142.125,23.95v4.6h-3.842V23.927l-4.348-7.83h4.106l2.2,4.463,2.107-4.463h4.106Z" transform="translate(533.114 79.951)" fill="#fff"/><path d="M143.185,29.055a3.477,3.477,0,0,1-3.771-3.163,3.226,3.226,0,0,1-.013-.351,3.719,3.719,0,0,1,3.029-3.363,3.251,3.251,0,0,1-2.053-2.93,3.423,3.423,0,0,1,3.6-3.236c.035,0,.07,0,.108.006a3.1,3.1,0,0,1,3.389,2.777c.01.092.013.185.016.281A3.353,3.353,0,0,1,145.117,22a9.971,9.971,0,0,1,2.592,2.212l1.913-2.99h1.913l-3.051,3.886,3.032,3.647-1.776.3-2.187-2.815c-1.18,1.7-2.611,2.812-4.368,2.812m.23-6.376c-1.361.638-2.334,1.533-2.334,2.729a2.165,2.165,0,0,0,2.11,2.219c.077,0,.15,0,.223-.006a4.421,4.421,0,0,0,3.424-2.251,9.142,9.142,0,0,0-3.424-2.691m2.468-3.465a1.777,1.777,0,0,0-1.753-1.8,2.11,2.11,0,0,0-2.066,1.607c0,.038-.006.077-.006.115,0,1.132.679,1.795,2.031,2.369a2.53,2.53,0,0,0,1.795-2.289" transform="translate(545.072 79.747)" fill="#fff"/><path d="M154.7,20.126a6.282,6.282,0,0,0-2.99-.838,2.916,2.916,0,0,0-3.076,2.745,2.83,2.83,0,0,0,.01.465c0,2.012,1.052,3.268,3.067,3.268a6.069,6.069,0,0,0,3.172-.918l.858,3.37a10.563,10.563,0,0,1-4.224.838c-4.167,0-6.816-2.174-6.816-6.481,0-4.039,2.6-6.571,6.972-6.571a10.62,10.62,0,0,1,4.208.874Z" transform="translate(556.658 79.747)" fill="#fff"/><path d="M154.6,28.85c-3.306,0-5.8-1.435-5.8-5.2V16.1h3.928v7.074c0,1.674.574,2.448,1.935,2.448,1.291,0,1.83-.615,1.83-2.35V16.1H160.4v7.234c0,3.845-2.391,5.518-5.8,5.518" transform="translate(565.647 79.953)" fill="#fff"/><path d="M153.327,28.55V16.1h3.928V25.34h4.8v3.21Z" transform="translate(575.543 79.953)" fill="#fff"/><path d="M163.757,19.307v9.245H159.83V19.307h-3.762V16.1h11.458v3.21Z" transform="translate(581.542 79.951)" fill="#fff"/><path d="M166.052,28.85c-3.306,0-5.8-1.435-5.8-5.2V16.1h3.928v7.074c0,1.674.574,2.448,1.935,2.448,1.291,0,1.83-.615,1.83-2.35V16.1h3.905v7.234c0,3.845-2.391,5.518-5.8,5.518" transform="translate(590.699 79.953)" fill="#fff"/><path d="M168.7,28.553h-3.924V16.1h5.64c3.465,0,5.3,1.6,5.3,4.087a3.675,3.675,0,0,1-2.432,3.587l3.089,4.782h-4.345l-2.232-3.791-1.1.105Zm1.275-6.5c1.192-.121,1.674-.577,1.674-1.588,0-.918-.539-1.377-1.951-1.377h-1.078v2.99Z" transform="translate(600.595 79.951)" fill="#fff"/><path d="M169.019,28.55V16.1h9.727v3.048h-5.9v1.632h4.667v3.051h-4.667V25.5h5.9V28.55Z" transform="translate(609.88 79.953)" fill="#fff"/><rect width="548.565" height="92.051" transform="translate(240.059 44.729)" fill="none"/><g transform="translate(235.804 77.463)"><path d="M72.124,10.051V42.888H67.868V27.879H64.374V42.888H60.118V10.051h4.256V23.759h3.494V10.051Z" transform="translate(-60.118 -10.051)" fill="#fff"/><rect width="4.256" height="32.836" transform="translate(16.4 0.002)" fill="#fff"/><path d="M75.807,20.264V15.2a1.013,1.013,0,0,0-1.031-1.028h-1.79A1.013,1.013,0,0,0,71.954,15.2V18.7a3.136,3.136,0,0,0,.851,2.241l5.332,5.957a6.687,6.687,0,0,1,1.927,4.8v7.255a3.979,3.979,0,0,1-3.942,3.942H71.643A3.979,3.979,0,0,1,67.7,38.945V32.271h4.256v5.465a1.013,1.013,0,0,0,1.031,1.028h1.79a1.013,1.013,0,0,0,1.031-1.028v-5.6a3.546,3.546,0,0,0-.851-2.238l-5.78-6.541c-1.031-1.165-1.479-2.374-1.479-4.792v-4.57a3.979,3.979,0,0,1,3.945-3.942h4.478a3.979,3.979,0,0,1,3.942,3.942v6.271Z" transform="translate(-43.641 -10.051)" fill="#fff"/><path d="M75.982,42.887V14.174H72.174V10.051H84.047v4.123H80.238V42.887Z" transform="translate(-33.911 -10.051)" fill="#fff"/><path d="M80.492,42.887a3.977,3.977,0,0,1-3.942-3.942V14a3.979,3.979,0,0,1,3.942-3.945H84.97A3.98,3.98,0,0,1,88.915,14V38.945a3.977,3.977,0,0,1-3.945,3.942Zm.314-5.151a1.011,1.011,0,0,0,1.032,1.028h1.79a1.011,1.011,0,0,0,1.032-1.028V15.2a1.013,1.013,0,0,0-1.032-1.028h-1.79A1.013,1.013,0,0,0,80.806,15.2Z" transform="translate(-24.398 -10.051)" fill="#fff"/><path d="M81.632,10.051h8.42a3.977,3.977,0,0,1,3.942,3.942v9.721a3.678,3.678,0,0,1-2.33,3.761l4.3,15.412h-4.57L87.408,27.878H85.885V42.887H81.632ZM89.741,15.2a1.013,1.013,0,0,0-1.031-1.028H85.885v9.585H88.71a1.016,1.016,0,0,0,1.031-1.031Z" transform="translate(-13.35 -10.051)" fill="#fff"/><path d="M95.125,42.887H90.869V29.672l-4.748-19.62h4.345l2.463,12.454h.089l2.466-12.454h4.345l-4.7,19.62Z" transform="translate(-3.592 -10.051)" fill="#fff"/></g></g></svg>