<svg xmlns="http://www.w3.org/2000/svg" xmlns:xlink="http://www.w3.org/1999/xlink" width="176.299" height="55.934" viewBox="0 0 176.299 55.934"><defs><clipPath id="a"><path d="M0,0V55.934l16.707-5.382-.06-45.277ZM18.424,0V55.934l16.707-5.382-.06-45.277ZM37.04,0V55.934l16.708-6.952-.062-42.2Z" fill="#fff"/></clipPath><clipPath id="b"><path d="M45.157,0,28.509,6.784l-.06,42.2,16.708,6.952ZM63.775,0,47.127,5.275l-.06,45.277,16.708,5.382ZM82.2,0,65.551,5.275l-.06,45.277L82.2,55.934Z" transform="translate(-28.449)" fill="#fff"/></clipPath></defs><g transform="translate(-2777 19174.377)"><g transform="translate(2777 -19174.377)" clip-path="url(#a)"><rect width="53.748" height="55.934" transform="translate(0 0)" fill="#fff"/></g><g transform="translate(2832.414 -19174.377)" clip-path="url(#b)"><rect width="53.748" height="55.934" transform="translate(0 0)" fill="#fff"/></g><path d="M2.857,8.914H6.017V30.231h4.49v3.062H2.857Z" transform="translate(2779.709 -19165.928)"/><rect width="3.159" height="24.379" transform="translate(2801.949 -19157.014)"/><path d="M20.694,8.914H23.92l1.864,16.4h.066l1.829-16.4h3.126L27.712,33.293H23.788Z" transform="translate(2796.614 -19165.928)"/><rect width="3.159" height="24.379" transform="translate(2838.556 -19157.014)"/><path d="M39.88,33.293V8.914h2.828L46,22.619h.033L45.9,17.593V8.914h2.992V33.293H46.067l-3.292-13.7h-.033l.132,5.023v8.68Z" transform="translate(2814.799 -19165.928)"/><path d="M58.532,20.554v9.811a2.953,2.953,0,0,1-2.926,2.928H52.28a2.951,2.951,0,0,1-2.926-2.928V11.842A2.951,2.951,0,0,1,52.28,8.914h3.259a2.953,2.953,0,0,1,2.928,2.928v6.085H55.373V12.74a.752.752,0,0,0-.765-.764h-1.33a.75.75,0,0,0-.764.764V29.467a.751.751,0,0,0,.764.765h1.33a.752.752,0,0,0,.765-.765V23.583h-1.5V20.554Z" transform="translate(2823.779 -19165.928)"/><g transform="translate(2894.191 -19154.383)"><path d="M67.492,10.051V30.219H64.878V21H62.732v9.218H60.118V10.051h2.614v8.419h2.146V10.051Z" transform="translate(-60.118 -10.051)" fill="#fff"/><rect width="2.614" height="20.168" transform="translate(10.073 0.001)" fill="#fff"/><path d="M72.679,16.324V13.215a.622.622,0,0,0-.634-.632h-1.1a.622.622,0,0,0-.634.632v2.146a1.926,1.926,0,0,0,.522,1.376L74.109,20.4a4.107,4.107,0,0,1,1.183,2.945V27.8a2.444,2.444,0,0,1-2.421,2.421H70.121A2.444,2.444,0,0,1,67.7,27.8V23.7h2.614v3.357a.622.622,0,0,0,.634.632h1.1a.622.622,0,0,0,.634-.632V23.614a2.178,2.178,0,0,0-.522-1.374l-3.55-4.018a3.894,3.894,0,0,1-.908-2.943V12.472a2.444,2.444,0,0,1,2.423-2.421h2.751a2.444,2.444,0,0,1,2.421,2.421v3.852Z" transform="translate(-52.922 -10.051)" fill="#fff"/><path d="M74.513,30.219V12.583H72.174V10.051h7.293v2.532H77.127V30.219Z" transform="translate(-48.673 -10.051)" fill="#fff"/><path d="M78.971,30.219A2.442,2.442,0,0,1,76.55,27.8V12.474a2.444,2.444,0,0,1,2.421-2.423h2.751a2.445,2.445,0,0,1,2.423,2.423V27.8a2.443,2.443,0,0,1-2.423,2.421Zm.193-3.164a.621.621,0,0,0,.634.632h1.1a.621.621,0,0,0,.634-.632V13.215a.622.622,0,0,0-.634-.632H79.8a.622.622,0,0,0-.634.632Z" transform="translate(-44.518 -10.051)" fill="#fff"/><path d="M81.632,10.051H86.8a2.442,2.442,0,0,1,2.421,2.421v5.971a2.259,2.259,0,0,1-1.431,2.31l2.641,9.466H87.628L85.18,21h-.936v9.218H81.632Zm4.981,3.164a.622.622,0,0,0-.634-.632H84.244V18.47h1.735a.624.624,0,0,0,.634-.634Z" transform="translate(-39.694 -10.051)" fill="#fff"/><path d="M91.651,30.219H89.037V22.1L86.121,10.051H88.79L90.3,17.7h.055l1.515-7.649H94.54L91.651,22.1Z" transform="translate(-35.432 -10.051)" fill="#fff"/></g></g></svg>