<svg xmlns="http://www.w3.org/2000/svg" width="220" height="66" viewBox="0 0 220 66" fill="none">
  <path d="M0 0.256836L4.34964 13.5984H0L4.34964 26.931H0L5.61273 40.2637H39.7339L45.3466 26.931H40.997L45.3466 13.5984H40.997L45.3466 0.256836H0Z" fill="black"/>
  <path d="M65.7425 0.248047H67.6372V10.4842H65.5113L60.6368 3.01721V10.3869H58.7422V0.248047H60.9126L65.7425 7.62658V0.248047Z" fill="black"/>
  <path d="M74.1572 1.9467L72.6095 6.34374H75.696L74.1572 1.9467ZM79.0494 10.3869H77.0392L76.1942 7.98932H72.0847L71.2485 10.3869H69.2383L72.9653 0.248047H75.3847L79.0583 10.3869H79.0494Z" fill="black"/>
  <path d="M84.2272 1.98209V10.3869H82.2525V1.98209H78.8457V0.248047H87.6428V1.98209H84.2272Z" fill="black"/>
  <path d="M91.4845 0.248047H89.5098V10.3869H91.4845V0.248047Z" fill="black"/>
  <path d="M98.9136 1.65442C96.9745 1.65442 95.7114 3.1142 95.7114 5.27291C95.7114 7.43162 96.9834 8.97103 98.9759 8.97103C100.968 8.97103 102.187 7.49355 102.187 5.33484C102.187 3.17613 100.897 1.65442 98.9047 1.65442M98.9403 10.6343C95.9249 10.6343 93.7012 8.67022 93.7012 5.34369C93.7012 2.21179 95.9338 0 98.9581 0C101.982 0 104.179 1.94638 104.179 5.27291C104.179 8.40481 101.956 10.6254 98.9403 10.6254" fill="black"/>
  <path d="M113.368 0.248047H115.262V10.4842H113.145L108.262 3.01721V10.3869H106.367V0.248047H108.538L113.368 7.62658V0.248047Z" fill="black"/>
  <path d="M121.79 1.9467L120.242 6.34374H123.329L121.799 1.9467H121.79ZM126.682 10.3869H124.672L123.827 7.98932H119.717L118.881 10.3869H116.871L120.589 0.248047H123L126.673 10.3869H126.682Z" fill="black"/>
  <path d="M128.248 10.3869V0.248047H130.241V8.65286H134.839V10.3869H128.248Z" fill="black"/>
  <path d="M149.293 2.25635L146.634 10.2453H144.552L141.875 2.25635L141.777 10.3869H139.9L140.238 0.248047H142.996L145.629 8.22819L148.253 0.248047H150.975L151.304 10.3869H149.374L149.293 2.25635Z" fill="black"/>
  <path d="M157.913 10.6346C155.307 10.6346 153.67 9.19253 153.67 6.54723V0.248047H155.662V6.28181C155.662 7.95393 156.401 8.89173 157.984 8.89173C159.407 8.89173 160.208 8.11318 160.208 6.36144V0.248047H162.182V6.37029C162.182 9.1306 160.635 10.6346 157.922 10.6346" fill="black"/>
  <path d="M169.752 7.60856C169.752 6.76808 168.988 6.45843 167.484 6.05146C166.017 5.64449 164.318 4.99865 164.318 2.99919C164.327 1.20321 165.714 0 167.973 0C169.361 0 170.5 0.345039 171.478 0.893564L170.989 2.56568C170.09 2.026 168.952 1.68981 167.982 1.68981C166.79 1.68981 166.266 2.1941 166.266 2.89302C166.266 3.72466 167.182 4.04315 168.578 4.41474C170.108 4.8394 171.692 5.53833 171.692 7.46701C171.692 9.39569 170.206 10.6343 167.804 10.6343C166.452 10.6343 165.092 10.2804 164.131 9.69649L164.584 7.98899C165.527 8.55521 166.613 8.96218 167.831 8.96218C168.943 8.96218 169.726 8.4225 169.726 7.61741" fill="black"/>
  <path d="M173.871 10.3869V0.248047H180.818V1.92016H175.828V4.46815H179.92V6.14026H175.828V8.71479H180.818V10.3869H173.871Z" fill="black"/>
  <path d="M187.266 10.6346C184.651 10.6346 183.023 9.19253 183.023 6.54723V0.248047H185.016V6.28181C185.016 7.95393 185.754 8.89173 187.338 8.89173C188.761 8.89173 189.561 8.11318 189.561 6.36144V0.248047H191.536V6.37029C191.536 9.1306 189.988 10.6346 187.275 10.6346" fill="black"/>
  <path d="M203.287 2.25635L200.627 10.2453H198.537L195.859 2.25635L195.762 10.3869H193.885L194.232 0.248047H196.989L199.613 8.22819L202.246 0.248047H204.968L205.297 10.3869H203.367L203.287 2.25635Z" fill="black"/>
  <path d="M60.9221 18.8182C60.2016 18.8182 59.6412 20.0657 59.4455 20.9592C59.3477 21.3839 59.2854 21.8263 59.2854 22.1978C59.2854 22.9233 59.5701 23.578 60.1038 23.578C60.8687 23.578 61.3935 22.2863 61.5892 21.3751C61.6782 20.9592 61.7404 20.508 61.7404 20.1453C61.7404 19.411 61.4736 18.8271 60.9221 18.8271M60.1215 24.1531C58.725 24.1531 57.9512 23.1268 57.9512 21.6759C57.9512 19.9507 59.2409 18.2432 60.9221 18.2432C62.3186 18.2432 63.0836 19.2694 63.0836 20.7381C63.0836 22.4456 61.8205 24.1619 60.1215 24.1619" fill="black"/>
  <path d="M68.4988 17.4023C67.974 17.4023 67.6538 16.8626 67.5648 16.2256L66.7909 16.3583C66.5952 16.898 66.3996 17.8092 66.3017 18.4816H67.7783L67.8228 19.1805H66.1772L65.4389 22.8256C65.1276 24.4181 64.6561 25.7363 64.0602 26.329C63.6421 26.7714 63.0817 26.966 62.5213 26.966C61.8453 26.966 61.3027 26.5591 61.3027 25.984C61.3027 25.5417 61.6141 25.2408 62.0143 25.2408C62.5391 25.2408 62.8594 25.7009 62.9216 26.2406L63.571 26.0459C63.7222 25.6655 63.9001 24.8162 64.0513 23.9934L64.7896 19.269L63.7222 19.1805L63.7578 18.7647L64.9497 18.3843C65.1098 17.6057 65.43 16.8183 65.9459 16.3052C66.4707 15.7832 67.0845 15.4824 67.8761 15.4824C68.6678 15.4824 69.2371 15.969 69.2371 16.5795C69.2371 17.0041 68.9257 17.3846 68.4899 17.3846" fill="black"/>
  <path d="M77.6787 16.8803L76.131 21.2773H79.2175L77.6876 16.8803H77.6787ZM82.5709 25.3205H80.5607L79.7156 22.9229H75.6062L74.77 25.3205H72.7598L76.4779 15.1816H78.8973L82.5709 25.3205Z" fill="black"/>
  <path d="M84.1367 15.1729H90.9236V16.898H86.1114V19.5787H90.0252V21.2774H86.1114V25.3206H84.1367V15.1729Z" fill="black"/>
  <path d="M96.3781 20.1095C97.6056 20.0476 98.3973 19.4902 98.3973 18.3932C98.3973 17.2961 97.5967 16.8361 96.1824 16.8361H94.8927V20.1449L96.3781 20.1095ZM94.9104 25.3205H92.918V15.1816H96.4938C99.0733 15.1816 100.443 16.3937 100.443 18.2693C100.443 19.7114 99.6248 20.72 98.2372 21.1889L100.915 25.3293H98.6463L96.3781 21.6135L94.9104 21.7109V25.3293V25.3205Z" fill="black"/>
  <path d="M104.731 15.1729H102.756V25.3117H104.731V15.1729Z" fill="black"/>
  <path d="M114.94 17.4468C114.122 16.9071 113.241 16.6329 112.263 16.6329C110.27 16.6329 108.954 17.9953 108.954 20.1983C108.954 22.4012 110.243 23.8521 112.298 23.8521C113.339 23.8521 114.335 23.4629 115.091 22.9409L115.465 24.7546C114.646 25.2411 113.374 25.5508 112.218 25.5508C109.087 25.5508 106.943 23.5867 106.943 20.2602C106.943 16.9337 109.078 14.9165 112.263 14.9165C113.454 14.9165 114.673 15.2262 115.563 15.7127L114.94 17.4291V17.4468Z" fill="black"/>
  <path d="M121.513 16.8803L119.965 21.2773H123.052L121.513 16.8803ZM126.405 25.3205H124.395L123.55 22.9229H119.44L118.604 25.3205H116.594L120.312 15.1816H122.731L126.405 25.3205Z" fill="black"/>
  <path d="M134.981 15.1729H136.875V25.4179H134.75L129.875 17.9509V25.3206H127.98V15.1729H130.151L134.981 22.5602V15.1729Z" fill="black"/>
  <path d="M146.821 16.8803L145.274 21.2773H148.36L146.821 16.8803ZM151.714 25.3205H149.703L148.858 22.9229H144.749L143.913 25.3205H141.902L145.62 15.1816H148.04L151.714 25.3205Z" fill="black"/>
  <path d="M162.423 17.19L159.764 25.1701H157.674L154.996 17.19L154.898 25.3206H153.021L153.368 15.1729H156.126L158.75 23.1618L161.383 15.1729H164.105L164.434 25.3206H162.504L162.423 17.19Z" fill="black"/>
  <path d="M166.842 25.3205V15.1816H173.798V16.8449H168.799V19.3929H172.899V21.065H168.799V23.6484H173.798V25.3205H166.842Z" fill="black"/>
  <path d="M179.501 20.1095C180.729 20.0476 181.52 19.4902 181.52 18.3932C181.52 17.2961 180.72 16.8361 179.305 16.8361H178.016V20.1449L179.501 20.1095ZM178.033 25.3205H176.041V15.1816H179.617C182.196 15.1816 183.566 16.3937 183.566 18.2693C183.566 19.7114 182.748 20.72 181.36 21.1889L184.038 25.3293H181.769L179.501 21.6135L178.033 21.7109V25.3293V25.3205Z" fill="black"/>
  <path d="M187.861 15.1729H185.887V25.3117H187.861V15.1729Z" fill="black"/>
  <path d="M198.075 17.4468C197.256 16.9071 196.376 16.6329 195.397 16.6329C193.405 16.6329 192.088 17.9953 192.088 20.1983C192.088 22.4012 193.378 23.8521 195.433 23.8521C196.474 23.8521 197.47 23.4629 198.226 22.9409L198.6 24.7546C197.781 25.2411 196.509 25.5508 195.353 25.5508C192.222 25.5508 190.078 23.5867 190.078 20.2602C190.078 16.9337 192.213 14.9165 195.397 14.9165C196.589 14.9165 197.808 15.2262 198.697 15.7127L198.075 17.4291V17.4468Z" fill="black"/>
  <path d="M204.647 16.8803L203.1 21.2773H206.186L204.647 16.8803ZM209.54 25.3205H207.529L206.684 22.9229H202.575L201.739 25.3205H199.729L203.447 15.1816H205.866L209.54 25.3205Z" fill="black"/>
  <path d="M218.106 15.1729H220V25.4179H217.883L213 17.9509V25.3206H211.105V15.1729H213.276L218.106 22.5602V15.1729Z" fill="black"/>
  <path d="M65.5824 30.1069V34.2828H60.7347V30.1069H58.7422V40.2546H60.7347V35.9991H65.5824V40.2546H67.5571V30.1069H65.5824Z" fill="black"/>
  <path d="M72.254 30.1069H70.2793V40.2458H72.254V30.1069Z" fill="black"/>
  <path d="M79.9205 37.4767C79.9205 36.6362 79.1555 36.3266 77.6522 35.9196C76.1846 35.5127 74.4856 34.8668 74.4856 32.8674C74.4856 31.0625 75.8732 29.8682 78.1415 29.8682C79.5291 29.8682 80.6676 30.2132 81.6461 30.7617L81.1569 32.4338C80.2585 31.8942 79.1199 31.558 78.1504 31.558C76.9584 31.558 76.4336 32.0623 76.4336 32.7612C76.4336 33.5928 77.3498 33.9113 78.7463 34.2829C80.2763 34.7076 81.8596 35.4065 81.8596 37.3352C81.8596 39.2639 80.3741 40.5025 77.9725 40.5025C76.6204 40.5025 75.2595 40.1486 74.2988 39.5647L74.7525 37.8572C75.6953 38.4234 76.7805 38.8303 77.9991 38.8303C79.111 38.8303 79.8938 38.2907 79.8938 37.4856" fill="black"/>
  <path d="M82.9902 30.1069V31.8498H86.397V40.2546H88.3717V31.8498H91.7785V30.1069H82.9902Z" fill="black"/>
  <path d="M98.1832 31.5226C96.2441 31.5226 94.981 32.9824 94.981 35.1411C94.981 37.2998 96.253 38.8392 98.2454 38.8392C100.238 38.8392 101.457 37.3617 101.457 35.203C101.457 33.0443 100.167 31.5226 98.1743 31.5226M98.2099 40.5025C95.1945 40.5025 92.9707 38.5384 92.9707 35.2119C92.9707 32.08 95.2033 29.8682 98.2276 29.8682C101.252 29.8682 103.449 31.8145 103.449 35.1411C103.449 38.273 101.225 40.4936 98.2099 40.4936" fill="black"/>
  <path d="M109.097 35.0436C110.324 34.9817 111.116 34.4243 111.116 33.3272C111.116 32.2302 110.315 31.7701 108.901 31.7701H107.611V35.079L109.097 35.0436ZM107.629 40.2546H105.637V30.1157H109.212C111.792 30.1157 113.162 31.3278 113.162 33.2034C113.162 34.6455 112.344 35.654 110.956 36.1229L113.633 40.2634H111.365L109.097 36.5476L107.629 36.6449V40.2634V40.2546Z" fill="black"/>
  <path d="M120.911 30.1069L118.545 34.4951L116.125 30.1069H113.973L117.531 36.3088V40.2546H119.505V36.3265L123.046 30.1069H120.911Z" fill="black"/>
  <path d="M130.65 31.6021C130.028 31.6021 129.609 32.1063 129.609 32.7522C129.609 33.4954 129.894 33.8492 130.374 34.3535C131.202 33.8758 131.575 33.3361 131.575 32.7433C131.575 32.1506 131.255 31.6021 130.65 31.6021ZM129.325 35.1852C128.72 35.6098 128.293 36.1495 128.293 36.7953C128.293 37.4766 128.764 37.9189 129.414 37.9189C129.867 37.9189 130.472 37.6624 131.13 37.1846L129.325 35.1852ZM131.442 37.4677C130.561 38.5028 129.672 39.0779 128.631 39.0779C127.653 39.0779 126.896 38.2463 126.896 37.1581C126.896 35.8222 128.062 35.1144 129.022 34.9109V34.8844C128.56 34.4597 128.177 33.9289 128.177 33.1946C128.177 31.8498 129.529 31.0801 130.819 31.0801C132.109 31.0801 133.007 31.7171 133.007 32.6903C133.007 33.6635 132.136 34.3181 130.721 34.6366V34.6632L132.278 36.3176H132.305L133.603 35.1586V35.1321C133.274 34.964 133.114 34.7251 133.114 34.4243C133.114 33.9643 133.497 33.6281 133.986 33.6281C134.537 33.6281 134.92 34.0439 134.92 34.5482C134.92 35.2736 134.315 35.8045 133.087 36.353L132.571 36.6184L134.439 38.6002L132.945 39.1752L131.469 37.4677H131.442Z" fill="black"/>
  <path d="M147.905 32.3809C147.086 31.8412 146.206 31.5669 145.227 31.5669C143.235 31.5669 141.918 32.9294 141.918 35.1323C141.918 37.3353 143.208 38.7862 145.263 38.7862C146.304 38.7862 147.3 38.3969 148.056 37.875L148.43 39.6886C147.611 40.1752 146.339 40.4849 145.183 40.4849C142.052 40.4849 139.908 38.5208 139.908 35.1943C139.908 31.8677 142.043 29.8506 145.227 29.8506C146.419 29.8506 147.647 30.1602 148.527 30.6468L147.905 32.3632V32.3809Z" fill="black"/>
  <path d="M154.817 40.4936C152.202 40.4936 150.574 39.0515 150.574 36.4062V30.107H152.567V36.1408C152.567 37.8129 153.305 38.7507 154.888 38.7507C156.311 38.7507 157.112 37.9721 157.112 36.2204V30.0981H159.087V36.2204C159.087 38.9807 157.539 40.4847 154.826 40.4847" fill="black"/>
  <path d="M161.703 30.1069V40.2546H168.303V38.5206H163.696V30.1069H161.703Z" fill="black"/>
  <path d="M167.857 30.1069V31.8498H171.264V40.2546H173.239V31.8498H176.655V30.1069H167.857Z" fill="black"/>
  <path d="M182.686 40.4936C180.08 40.4936 178.443 39.0515 178.443 36.4062V30.107H180.436V36.1408C180.436 37.8129 181.174 38.7507 182.757 38.7507C184.181 38.7507 184.981 37.9721 184.981 36.2204V30.0981H186.956V36.2204C186.956 38.9807 185.408 40.4847 182.695 40.4847" fill="black"/>
  <path d="M193.03 35.0436C194.258 34.9817 195.05 34.4243 195.05 33.3272C195.05 32.2302 194.249 31.7701 192.835 31.7701H191.545V35.079L193.03 35.0436ZM191.563 40.2546H189.57V30.1157H193.146C195.726 30.1157 197.095 31.3278 197.095 33.2034C197.095 34.6455 196.277 35.654 194.89 36.1229L197.567 40.2634H195.299L193.03 36.5476L191.563 36.6449V40.2634V40.2546Z" fill="black"/>
  <path d="M199.381 30.1069V40.2546H206.328V38.5825H201.338V35.9991H205.429V34.327H201.338V31.779H206.328V30.1069H199.381Z" fill="black"/>
  <path d="M79.3443 56.7989C79.0508 55.7726 78.6327 54.6578 77.2273 54.6578C75.982 54.6578 75.4305 55.5603 75.4305 56.4273C75.4305 57.6039 76.2044 58.1525 77.4853 58.8072C78.7484 59.453 80.2872 60.205 80.2872 62.0098C80.2872 63.6996 78.8462 65.0533 76.6936 65.0533C76.0265 65.0533 75.5106 64.9206 75.1103 64.8144C74.71 64.6728 74.461 64.5578 74.3187 64.4782C74.1852 64.142 73.9807 62.753 73.8828 61.9833L74.3542 61.8683C74.6122 62.8503 75.3416 64.4782 77.005 64.4782C78.2147 64.4782 78.9441 63.7262 78.9441 62.5495C78.9441 61.3728 78.0546 60.7978 76.8448 60.1519C75.813 59.6034 74.1763 58.7983 74.1763 56.9847C74.1763 55.4364 75.4216 54.1182 77.512 54.1182C78.2591 54.1182 78.9352 54.2951 79.5489 54.4897C79.6112 55.0648 79.6912 55.693 79.8247 56.7104L79.3532 56.8077L79.3443 56.7989Z" fill="black"/>
  <path d="M90.1951 64.8144V64.3985C91.1468 64.3012 91.3247 64.2393 91.3247 63.098V60.4085C91.3247 59.2672 90.9245 58.5417 89.9015 58.5417C89.3234 58.5417 88.7007 58.8602 88.087 59.3822C88.1225 59.5768 88.1314 59.7538 88.1314 60.0546V63.1953C88.1314 64.2128 88.2738 64.3012 89.1633 64.3985V64.8144H85.7031V64.3985C86.7082 64.3012 86.8506 64.2216 86.8506 63.1599V60.3908C86.8506 59.1964 86.4325 58.5417 85.4452 58.5417C84.7958 58.5417 84.1643 58.9752 83.684 59.3822V63.1599C83.684 64.2039 83.8174 64.3012 84.609 64.3985V64.8144H81.1934V64.3985C82.2608 64.3012 82.4031 64.2039 82.4031 63.1599V59.8334C82.4031 58.8071 82.3586 58.7187 81.4157 58.5771V58.2055C82.1273 58.0728 82.9546 57.8693 83.6662 57.542V58.8425C84.0042 58.6213 84.36 58.3294 84.8492 58.0197C85.2673 57.7632 85.6586 57.5862 86.1745 57.5862C86.9484 57.5862 87.6511 58.0728 87.9713 58.9045C88.4428 58.5506 88.9053 58.2409 89.3145 58.002C89.6525 57.7809 90.0705 57.5862 90.5242 57.5862C91.7873 57.5862 92.5789 58.4709 92.5789 60.0457V63.1511C92.5789 64.2304 92.7124 64.2924 93.6285 64.3897V64.8055H90.1862L90.1951 64.8144Z" fill="black"/>
  <path d="M94.5265 64.8146V64.3988C95.5494 64.3015 95.6561 64.2042 95.6561 63.116V59.7983C95.6561 58.7986 95.6117 58.7366 94.6332 58.5774V58.1881C95.4604 58.0554 96.2165 57.8519 96.9281 57.56V63.1071C96.9281 64.2042 97.0438 64.3015 98.0756 64.39V64.8058H94.5176L94.5265 64.8146ZM95.3804 55.3659C95.3804 54.8793 95.7718 54.5254 96.2076 54.5254C96.6435 54.5254 97.0171 54.8793 97.0171 55.3659C97.0171 55.7994 96.6613 56.1887 96.1898 56.1887C95.7718 56.1887 95.3804 55.7994 95.3804 55.3659Z" fill="black"/>
  <path d="M101.875 64.7966C101.599 64.9381 101.341 65.0089 101.199 65.0089C100.176 65.0089 99.6155 64.363 99.6155 63.0979V58.4177H98.5037L98.4414 58.2585L98.8773 57.7896H99.6244V56.6129L100.674 55.5513L100.896 55.5867V57.7896H102.729C102.871 57.9489 102.827 58.3027 102.631 58.4177H100.896V62.5494C100.896 63.8499 101.43 64.0976 101.83 64.0976C102.231 64.0976 102.604 63.9384 102.836 63.8234L102.978 64.2392L101.875 64.8054V64.7966Z" fill="black"/>
  <path d="M108.073 64.8141V64.3983C109.007 64.3009 109.141 64.2036 109.141 63.1597V60.4878C109.141 59.1696 108.643 58.506 107.557 58.506C106.944 58.506 106.33 58.8157 105.876 59.3288V63.1597C105.876 64.1859 105.956 64.3009 106.908 64.3983V64.8141H103.475V64.3983C104.444 64.3186 104.586 64.2213 104.586 63.1597V55.4803C104.586 54.4629 104.551 54.3833 103.483 54.2859V53.9144C104.257 53.7993 105.227 53.5428 105.858 53.3481V58.7538C106.428 58.1787 107.299 57.5771 108.171 57.5771C109.479 57.5771 110.404 58.3999 110.404 60.3286V63.142C110.404 64.2036 110.519 64.3009 111.471 64.3806V64.7964H108.056L108.073 64.8141Z" fill="black"/>
  <path d="M116.454 59.6828C116.143 58.7361 115.582 58.0903 114.791 58.0903C114.177 58.0903 113.741 58.5769 113.741 59.1962C113.741 59.9216 114.39 60.2932 115.12 60.594C116.329 61.0895 117.157 61.6734 117.157 62.7793C117.157 64.2479 115.778 64.9999 114.488 64.9999C113.661 64.9999 112.923 64.6903 112.629 64.4514C112.513 64.2302 112.371 63.1332 112.371 62.5493L112.789 62.4696C113.083 63.5313 113.812 64.4691 114.782 64.4691C115.378 64.4691 115.929 64.0179 115.929 63.3455C115.929 62.6731 115.458 62.2485 114.648 61.8769C113.679 61.4257 112.629 60.8948 112.629 59.6562C112.629 58.5326 113.599 57.5771 115.084 57.5771C115.751 57.5771 116.187 57.7187 116.525 57.8514C116.658 58.223 116.836 59.1696 116.881 59.5766L116.463 59.6739L116.454 59.6828Z" fill="black"/>
  <path d="M125.409 61.1784C125.409 63.7706 123.497 65.0092 121.896 65.0092C119.681 65.0092 118.355 63.2398 118.355 61.4526C118.355 58.7985 120.428 57.5864 121.896 57.5864C123.906 57.5864 125.409 59.1789 125.409 61.1784ZM119.859 60.9395C119.859 62.9655 120.748 64.4784 122.074 64.4784C123.079 64.4784 123.906 63.7352 123.906 61.5323C123.906 59.6478 123.15 58.1173 121.736 58.1173C120.73 58.1173 119.859 59.117 119.859 60.9307V60.9395Z" fill="black"/>
  <path d="M130.916 64.8144V64.3985C131.867 64.3012 131.983 64.1774 131.983 63.0626V60.3731C131.983 59.2672 131.592 58.5417 130.506 58.5417C129.857 58.5417 129.225 58.9398 128.745 59.3645V63.1423C128.745 64.2393 128.843 64.3012 129.795 64.3985V64.8144H126.281V64.3985C127.384 64.2835 127.464 64.2039 127.464 63.1423V59.8157C127.464 58.7894 127.366 58.7364 126.495 58.5771V58.2055C127.269 58.064 128.034 57.8693 128.745 57.542V58.8337C129.065 58.5948 129.421 58.3471 129.83 58.0817C130.284 57.7897 130.702 57.5951 131.173 57.5951C132.454 57.5951 133.264 58.4798 133.264 60.0369V63.1423C133.264 64.2393 133.344 64.3012 134.287 64.3985V64.8144H130.924H130.916Z" fill="black"/>
  <path d="M135.185 64.8146V64.3988C136.208 64.3015 136.314 64.2042 136.314 63.116V59.7983C136.314 58.7986 136.27 58.7366 135.291 58.5774V58.1881C136.119 58.0554 136.875 57.8519 137.586 57.56V63.1071C137.586 64.2042 137.702 64.3015 138.734 64.39V64.8058H135.176L135.185 64.8146ZM136.039 55.3659C136.039 54.8793 136.43 54.5254 136.866 54.5254C137.302 54.5254 137.675 54.8793 137.675 55.3659C137.675 55.7994 137.319 56.1887 136.848 56.1887C136.43 56.1887 136.039 55.7994 136.039 55.3659Z" fill="black"/>
  <path d="M144.685 65.0088C144.444 65.0088 144.106 64.8672 143.928 64.6991C143.715 64.4779 143.617 64.2479 143.537 63.9736C142.888 64.4072 142.114 64.9999 141.625 64.9999C140.477 64.9999 139.686 64.0533 139.686 63.0358C139.686 62.2485 140.104 61.7442 140.993 61.4434C141.963 61.1249 143.146 60.6913 143.502 60.3994V60.1074C143.502 58.9485 142.95 58.2849 142.141 58.2849C141.82 58.2849 141.571 58.4176 141.411 58.6034C141.198 58.8157 141.055 59.1696 140.922 59.6651C140.86 59.9216 140.682 60.0367 140.451 60.0367C140.157 60.0367 139.739 59.7182 139.739 59.3466C139.739 59.1077 139.952 58.9308 140.255 58.7007C140.708 58.3822 141.758 57.7541 142.683 57.5771C143.172 57.5771 143.653 57.7187 144.009 58.0107C144.578 58.4796 144.738 59.1342 144.738 59.9747V62.9651C144.738 63.6905 145.031 63.9294 145.307 63.9294C145.503 63.9294 145.725 63.8498 145.885 63.7525L146.045 64.1683L144.667 64.9911L144.685 65.0088ZM143.502 60.9568C143.163 61.1337 142.39 61.4699 142.043 61.6292C141.411 61.9211 141.055 62.2219 141.055 62.8058C141.055 63.6463 141.705 64.0444 142.203 64.0444C142.621 64.0267 143.19 63.7525 143.493 63.4694V60.9568H143.502Z" fill="black"/>
  <path d="M151.109 64.8144V64.3985C152.061 64.3012 152.176 64.1774 152.176 63.0626V60.3731C152.176 59.2672 151.785 58.5417 150.7 58.5417C150.05 58.5417 149.419 58.9398 148.939 59.3645V63.1423C148.939 64.2393 149.036 64.3012 149.988 64.3985V64.8144H146.475V64.3985C147.578 64.2835 147.658 64.2039 147.658 63.1423V59.8157C147.658 58.7894 147.56 58.7364 146.688 58.5771V58.2055C147.462 58.064 148.227 57.8693 148.939 57.542V58.8337C149.259 58.5948 149.615 58.3471 150.024 58.0817C150.477 57.7897 150.895 57.5951 151.367 57.5951C152.648 57.5951 153.457 58.4798 153.457 60.0369V63.1423C153.457 64.2393 153.537 64.3012 154.48 64.3985V64.8144H151.118H151.109Z" fill="black"/>
  <path d="M67.7705 61.116C67.2812 60.2843 66.5163 60.2755 66.4184 60.2755L69.6651 59.6031L66.4184 58.9307C66.4184 58.9307 67.0855 58.3468 68.0284 58.3291C68.74 58.3203 69.3627 57.4532 68.9624 56.7809C68.9624 56.7809 68.8467 57.8337 67.5125 57.4798C66.5785 57.2321 66.027 57.7717 65.9559 57.8337L67.7705 55.0734L64.9952 56.8782C64.9952 56.8339 65.0486 56.0023 65.7068 55.3211C66.2049 54.8079 66.027 53.764 65.271 53.5693C65.271 53.5693 65.9381 54.3921 64.7462 55.0822C63.91 55.5688 63.9011 56.3296 63.9011 56.427L63.2251 53.1978L62.5491 56.427C62.5224 56.4004 61.962 55.7723 61.9442 54.8256C61.9353 54.1179 61.0636 53.4986 60.3876 53.8967C60.3876 53.8967 61.4461 54.0117 61.0903 55.3388C60.8413 56.2766 61.3839 56.8251 61.4461 56.887L58.6709 55.0822L60.1475 57.3294L60.4855 57.8425C60.4588 57.8425 59.6049 57.7983 58.9199 57.1347C58.404 56.6393 57.3544 56.8162 57.1587 57.5683C57.1587 57.5683 57.986 56.9047 58.6798 58.0902C59.169 58.9219 59.9429 58.9307 60.0318 58.9307L56.7852 59.6031L60.0318 60.2755C60.0318 60.2755 59.3736 60.8594 58.4218 60.8771C57.7102 60.8859 57.0876 61.753 57.4879 62.4253C57.4879 62.4253 57.6035 61.3725 58.9377 61.7264C59.8806 61.9741 60.4321 61.4345 60.4944 61.3725L58.6798 64.1328L61.455 62.328C61.455 62.328 61.4105 63.2039 60.7434 63.8851C60.2453 64.3983 60.4232 65.4422 61.1793 65.6369C61.1793 65.6369 60.5122 64.8141 61.7041 64.124C62.5402 63.6374 62.5491 62.8677 62.5491 62.7792L63.2251 66.0085L63.9011 62.7792C63.9011 62.7792 64.4882 63.4339 64.506 64.3806C64.5149 65.0883 65.3866 65.7076 66.0626 65.3095C66.0626 65.3095 65.0041 65.1945 65.3599 63.8674C65.609 62.9296 65.0664 62.3811 65.0041 62.3192L67.7793 64.124L66.8187 62.6642L65.9648 61.3637C65.9648 61.3637 66.8454 61.4168 67.5303 62.0715C68.0462 62.5669 69.0958 62.39 69.2915 61.6379C69.2915 61.6379 68.4643 62.3015 67.7705 61.116Z" fill="black"/>
</svg>