<svg id="Layer_1" data-name="Layer 1" xmlns="http://www.w3.org/2000/svg" width="3.44in" height="0.64in" viewBox="0 0 247.33 45.77"><defs><style>.cls-1{fill:#fff;}</style></defs><title>nmaahc-logo-header</title><g id="Logo_horizontal" data-name="Logo horizontal"><polygon class="cls-1" points="0 0.29 4.89 15.37 0 15.37 4.89 30.44 0 30.44 6.31 45.51 44.67 45.51 50.98 30.44 46.09 30.44 50.98 15.37 46.09 15.37 50.98 0.29 0 0.29"/><polygon class="cls-1" points="73.91 0.28 76.04 0.28 76.04 11.85 73.65 11.85 68.17 3.41 68.17 11.74 66.04 11.74 66.04 0.28 68.48 0.28 73.91 8.62 73.91 0.28"/><path class="cls-1" d="M150.59,58.57l-1.74,5h3.47Zm5.5,9.54h-2.26l-1-2.71h-4.62l-.94,2.71h-2.26l4.18-11.46H152Z" transform="translate(-67.22 -56.37)"/><polygon class="cls-1" points="94.69 2.24 94.69 11.74 92.47 11.74 92.47 2.24 88.64 2.24 88.64 0.28 98.53 0.28 98.53 2.24 94.69 2.24"/><rect class="cls-1" x="100.63" y="0.28" width="2.22" height="11.46"/><path class="cls-1" d="M178.42,58.24c-2.18,0-3.6,1.65-3.6,4.09s1.43,4.18,3.67,4.18,3.61-1.67,3.61-4.11-1.45-4.16-3.69-4.16m0,10.15a5.59,5.59,0,0,1-5.89-6,5.77,5.77,0,0,1,5.91-6,5.57,5.57,0,0,1,5.87,6,5.77,5.77,0,0,1-5.89,6.05" transform="translate(-67.22 -56.37)"/><polygon class="cls-1" points="127.45 0.28 129.58 0.28 129.58 11.85 127.19 11.85 121.71 3.41 121.71 11.74 119.58 11.74 119.58 0.28 122.02 0.28 127.45 8.62 127.45 0.28"/><path class="cls-1" d="M204.13,58.57l-1.74,5h3.47Zm5.5,9.54h-2.26l-1-2.71H201.8l-.94,2.71h-2.26l4.18-11.46h2.71Z" transform="translate(-67.22 -56.37)"/><polygon class="cls-1" points="144.18 11.74 144.18 0.28 146.42 0.28 146.42 9.78 151.59 9.78 151.59 11.74 144.18 11.74"/><polygon class="cls-1" points="167.84 2.55 164.85 11.58 162.5 11.58 159.5 2.55 159.39 11.74 157.28 11.74 157.66 0.28 160.76 0.28 163.72 9.3 166.67 0.28 169.73 0.28 170.1 11.74 167.94 11.74 167.84 2.55"/><path class="cls-1" d="M244.74,68.39c-2.93,0-4.77-1.63-4.77-4.62V56.64h2.24v6.82c0,1.89.83,3,2.61,3,1.6,0,2.5-.88,2.5-2.86V56.64h2.22v6.92c0,3.12-1.74,4.82-4.79,4.82" transform="translate(-67.22 -56.37)"/><path class="cls-1" d="M258.06,65c0-1-.86-1.3-2.55-1.76S252,62,252,59.76c0-2,1.56-3.39,4.11-3.39a7.81,7.81,0,0,1,3.94,1l-.55,1.89a7,7,0,0,0-3.38-1c-1.34,0-1.93.57-1.93,1.36s1,1.3,2.6,1.72,3.5,1.27,3.5,3.45-1.67,3.58-4.37,3.58a8.21,8.21,0,0,1-4.13-1.06l.51-1.93a7,7,0,0,0,3.65,1.1c1.25,0,2.13-.61,2.13-1.52" transform="translate(-67.22 -56.37)"/><polygon class="cls-1" points="195.47 11.74 195.47 0.28 203.28 0.28 203.28 2.17 197.67 2.17 197.67 5.04 202.27 5.04 202.27 6.94 197.67 6.94 197.67 9.85 203.28 9.85 203.28 11.74 195.47 11.74"/><path class="cls-1" d="M277.74,68.39c-2.94,0-4.77-1.63-4.77-4.62V56.64h2.24v6.82c0,1.89.83,3,2.61,3,1.6,0,2.5-.88,2.5-2.86V56.64h2.22v6.92c0,3.12-1.74,4.82-4.79,4.82" transform="translate(-67.22 -56.37)"/><polygon class="cls-1" points="228.54 2.55 225.55 11.58 223.2 11.58 220.19 2.55 220.08 11.74 217.97 11.74 218.36 0.28 221.46 0.28 224.41 9.3 227.37 0.28 230.43 0.28 230.8 11.74 228.63 11.74 228.54 2.55"/><path class="cls-1" d="M135.71,77.64c-.81,0-1.44,1.41-1.66,2.42a6.61,6.61,0,0,0-.18,1.4c0,.82.32,1.56.92,1.56.86,0,1.45-1.46,1.67-2.49a7.38,7.38,0,0,0,.17-1.39c0-.83-.3-1.49-.92-1.49m-.9,6c-1.57,0-2.44-1.16-2.44-2.8,0-1.95,1.45-3.88,3.34-3.88,1.57,0,2.43,1.16,2.43,2.82,0,1.93-1.42,3.87-3.33,3.87" transform="translate(-67.22 -56.37)"/><path class="cls-1" d="M144.23,76c-.59,0-1-.61-1-1.33l-.87.15a14.39,14.39,0,0,0-.55,2.4h1.66l.05.79h-1.85l-.83,4.12a8.48,8.48,0,0,1-1.55,4,2.35,2.35,0,0,1-1.73.72,1.23,1.23,0,0,1-1.37-1.11.79.79,0,0,1,.8-.84c.59,0,1,.52,1,1.13l.73-.22a16.32,16.32,0,0,0,.54-2.32l.83-5.34-1.2-.1,0-.47,1.34-.43a4.66,4.66,0,0,1,1.12-2.35,2.93,2.93,0,0,1,2.17-.93,1.37,1.37,0,0,1,1.53,1.24.87.87,0,0,1-.84.91" transform="translate(-67.22 -56.37)"/><path class="cls-1" d="M154.54,75.45l-1.74,5h3.47ZM160,85h-2.26l-1-2.71h-4.62L151.28,85H149l4.18-11.46h2.72Z" transform="translate(-67.22 -56.37)"/><polygon class="cls-1" points="94.59 17.16 102.22 17.16 102.22 19.1 96.81 19.1 96.81 22.13 101.21 22.13 101.21 24.05 96.81 24.05 96.81 28.62 94.59 28.62 94.59 17.16"/><path class="cls-1" d="M175.56,79.1c1.38-.07,2.27-.7,2.27-1.94s-.9-1.76-2.49-1.76H173.9v3.74ZM173.91,85h-2.24V73.52h4c2.9,0,4.44,1.37,4.44,3.49a3.34,3.34,0,0,1-2.48,3.3l3,4.68h-2.55l-2.55-4.2-1.65.11Z" transform="translate(-67.22 -56.37)"/><rect class="cls-1" x="115.52" y="17.15" width="2.22" height="11.46"/><path class="cls-1" d="M196.44,76.09a5.33,5.33,0,0,0-3-.92c-2.24,0-3.72,1.54-3.72,4s1.45,4.13,3.76,4.13a5.62,5.62,0,0,0,3.14-1l.42,2.05a7.62,7.62,0,0,1-3.65.9c-3.52,0-5.93-2.22-5.93-6a5.66,5.66,0,0,1,6-6,8,8,0,0,1,3.71.9Z" transform="translate(-67.22 -56.37)"/><path class="cls-1" d="M203.83,75.45l-1.74,5h3.47Zm5.5,9.54h-2.26l-1-2.71H201.5L200.57,85h-2.26l4.18-11.46h2.72Z" transform="translate(-67.22 -56.37)"/><polygon class="cls-1" points="151.75 17.16 153.88 17.16 153.88 28.73 151.49 28.73 146 20.29 146 28.62 143.88 28.62 143.88 17.16 146.32 17.16 151.75 25.5 151.75 17.16"/><path class="cls-1" d="M232.28,75.45l-1.74,5H234Zm5.5,9.54h-2.26l-1-2.71H230L229,85h-2.26l4.18-11.46h2.72Z" transform="translate(-67.22 -56.37)"/><polygon class="cls-1" points="182.6 19.43 179.61 28.45 177.26 28.45 174.25 19.43 174.14 28.62 172.03 28.62 172.42 17.16 175.52 17.16 178.47 26.18 181.43 17.16 184.49 17.16 184.86 28.62 182.69 28.62 182.6 19.43"/><polygon class="cls-1" points="187.57 28.62 187.57 17.16 195.38 17.16 195.38 19.04 189.77 19.04 189.77 21.92 194.38 21.92 194.38 23.81 189.77 23.81 189.77 26.73 195.38 26.73 195.38 28.62 187.57 28.62"/><path class="cls-1" d="M269,79.1c1.38-.07,2.27-.7,2.27-1.94s-.9-1.76-2.49-1.76h-1.45v3.74ZM267.37,85h-2.24V73.52h4c2.9,0,4.44,1.37,4.44,3.49a3.34,3.34,0,0,1-2.48,3.3l3,4.68h-2.55L269,80.79l-1.65.11Z" transform="translate(-67.22 -56.37)"/><rect class="cls-1" x="208.98" y="17.15" width="2.22" height="11.46"/><path class="cls-1" d="M289.9,76.09a5.33,5.33,0,0,0-3-.92c-2.24,0-3.72,1.54-3.72,4s1.45,4.13,3.76,4.13a5.62,5.62,0,0,0,3.14-1l.42,2.05a7.62,7.62,0,0,1-3.65.9c-3.52,0-5.93-2.22-5.93-6a5.66,5.66,0,0,1,6-6,8,8,0,0,1,3.71.9Z" transform="translate(-67.22 -56.37)"/><path class="cls-1" d="M297.29,75.45l-1.74,5H299Zm5.5,9.54h-2.26l-1-2.71H295L294,85h-2.26l4.18-11.46h2.72Z" transform="translate(-67.22 -56.37)"/><polygon class="cls-1" points="245.2 17.16 247.33 17.16 247.33 28.73 244.95 28.73 239.46 20.29 239.46 28.62 237.33 28.62 237.33 17.16 239.77 17.16 245.2 25.5 245.2 17.16"/><polygon class="cls-1" points="73.72 34.03 73.72 38.75 68.28 38.75 68.28 34.03 66.04 34.03 66.04 45.5 68.28 45.5 68.28 40.69 73.72 40.69 73.72 45.5 75.94 45.5 75.94 34.03 73.72 34.03"/><rect class="cls-1" x="79.01" y="34.03" width="2.22" height="11.46"/><path class="cls-1" d="M157.07,98.73c0-1-.86-1.3-2.55-1.76S151,95.78,151,93.52c0-2,1.56-3.39,4.11-3.39a7.81,7.81,0,0,1,3.94,1L158.46,93a7,7,0,0,0-3.38-1c-1.34,0-1.93.57-1.93,1.36s1,1.3,2.6,1.72,3.5,1.27,3.5,3.45-1.67,3.58-4.37,3.58a8.21,8.21,0,0,1-4.13-1.06l.51-1.93a7,7,0,0,0,3.65,1.1c1.25,0,2.13-.61,2.13-1.52" transform="translate(-67.22 -56.37)"/><polygon class="cls-1" points="93.3 34.03 93.3 36 97.13 36 97.13 45.5 99.35 45.5 99.35 36 103.19 36 103.19 34.03 93.3 34.03"/><path class="cls-1" d="M177.59,92c-2.18,0-3.6,1.65-3.6,4.09s1.43,4.18,3.67,4.18,3.61-1.67,3.61-4.11S179.83,92,177.59,92m0,10.15a5.59,5.59,0,0,1-5.89-6,5.77,5.77,0,0,1,5.91-6,5.57,5.57,0,0,1,5.87,6,5.77,5.77,0,0,1-5.89,6.05" transform="translate(-67.22 -56.37)"/><path class="cls-1" d="M189.86,96c1.38-.07,2.27-.7,2.27-1.94s-.9-1.76-2.49-1.76h-1.45V96Zm-1.65,5.89H186V90.4h4c2.9,0,4.44,1.37,4.44,3.49a3.34,3.34,0,0,1-2.48,3.3l3,4.68h-2.55l-2.55-4.2-1.65.11Z" transform="translate(-67.22 -56.37)"/><polygon class="cls-1" points="135.93 34.03 133.27 38.99 130.55 34.03 128.13 34.03 132.13 41.04 132.13 45.5 134.35 45.5 134.35 41.06 138.33 34.03 135.93 34.03"/><path class="cls-1" d="M214.1,92.09a1.2,1.2,0,0,0-1.17,1.3,2.32,2.32,0,0,0,.86,1.81c.93-.54,1.35-1.15,1.35-1.82s-.36-1.29-1-1.29m-1.49,4A2.34,2.34,0,0,0,211.44,98a1.2,1.2,0,0,0,1.26,1.27,3.65,3.65,0,0,0,1.93-.83ZM215,98.72a4.19,4.19,0,0,1-3.16,1.82,2,2,0,0,1-1.95-2.17,2.76,2.76,0,0,1,2.39-2.54v0a2.54,2.54,0,0,1-1-1.91c0-1.52,1.52-2.39,3-2.39s2.46.72,2.46,1.82-1,1.84-2.57,2.2v0l1.75,1.87h0l1.46-1.31v0a.88.88,0,0,1-.55-.8.92.92,0,0,1,1-.9,1,1,0,0,1,1,1c0,.82-.68,1.42-2.06,2l-.58.3,2.1,2.24-1.68.65L215,98.72Z" transform="translate(-67.22 -56.37)"/><path class="cls-1" d="M233.49,93a5.33,5.33,0,0,0-3-.92c-2.24,0-3.72,1.54-3.72,4s1.45,4.13,3.76,4.13a5.62,5.62,0,0,0,3.14-1l.42,2.05a7.62,7.62,0,0,1-3.65.9c-3.52,0-5.93-2.22-5.93-6a5.66,5.66,0,0,1,6-6,8,8,0,0,1,3.71.9Z" transform="translate(-67.22 -56.37)"/><path class="cls-1" d="M241.27,102.14c-2.94,0-4.77-1.63-4.77-4.62V90.4h2.24v6.82c0,1.89.83,3,2.61,3,1.6,0,2.5-.88,2.5-2.86V90.4h2.22v6.92c0,3.12-1.74,4.82-4.79,4.82" transform="translate(-67.22 -56.37)"/><polygon class="cls-1" points="181.79 34.03 181.79 45.5 189.21 45.5 189.21 43.54 184.03 43.54 184.03 34.03 181.79 34.03"/><polygon class="cls-1" points="188.71 34.03 188.71 36 192.54 36 192.54 45.5 194.76 45.5 194.76 36 198.6 36 198.6 34.03 188.71 34.03"/><path class="cls-1" d="M272.6,102.14c-2.93,0-4.77-1.63-4.77-4.62V90.4h2.24v6.82c0,1.89.83,3,2.61,3,1.6,0,2.5-.88,2.5-2.86V90.4h2.22v6.92c0,3.12-1.74,4.82-4.79,4.82" transform="translate(-67.22 -56.37)"/><path class="cls-1" d="M284.23,96c1.38-.07,2.27-.7,2.27-1.94s-.9-1.76-2.49-1.76h-1.45V96Zm-1.65,5.89h-2.24V90.4h4c2.9,0,4.44,1.37,4.44,3.49a3.34,3.34,0,0,1-2.48,3.3l3,4.68h-2.55l-2.55-4.2-1.65.11Z" transform="translate(-67.22 -56.37)"/><polygon class="cls-1" points="224.15 34.03 224.15 45.5 231.96 45.5 231.96 43.61 226.35 43.61 226.35 40.69 230.95 40.69 230.95 38.8 226.35 38.8 226.35 35.92 231.96 35.92 231.96 34.03 224.15 34.03"/></g></svg>