<?xml version="1.0" encoding="UTF-8"?><svg id="a" xmlns="http://www.w3.org/2000/svg" xmlns:xlink="http://www.w3.org/1999/xlink" viewBox="0 0 128.84961 48.91935"><defs><linearGradient id="b" x1=".13134" y1="15.93112" x2="30.74806" y2="15.93112" gradientTransform="matrix(1, 0, 0, 1, 0, 0)" gradientUnits="userSpaceOnUse"><stop offset="0" stop-color="#372311"/><stop offset=".34463" stop-color="#754e1f"/><stop offset=".64183" stop-color="#a36f29"/><stop offset=".86935" stop-color="#c08330"/><stop offset="1" stop-color="#cb8b33"/></linearGradient><linearGradient id="c" x1="62.31402" y1="15.93112" x2="31.69731" y2="15.93112" xlink:href="#b"/></defs><g><path d="M3.01074,40.73283c-.25195-.14941-.60059-.25195-.90039-.25195-.56934,0-.92285,.37207-.92285,.96582,0,.60547,.31738,.9834,.92285,.9834,.34863,0,.66016-.10156,.9541-.27637l.25781,1.01367c-.28809,.15039-.82812,.25195-1.27148,.25195-1.25293,0-2.05078-.65332-2.05078-1.94922,0-1.2168,.78516-1.97852,2.09863-1.97852,.47363,0,.91211,.1084,1.26562,.26367l-.35352,.97754Z" style="fill:#fff;"/><path d="M7.79297,43.32951h-1.16895l-.23438-.70117h-1.27051l-.22266,.70117h-1.16309l1.28906-3.74805h1.50586l1.26465,3.74805Zm-2.02637-2.90234l-.41992,1.31348h.81543l-.39551-1.31348Z" style="fill:#fff;"/><path d="M11.95312,40.559l-.6543,2.71094h-1.2832l-.65918-2.69922-.01172,2.75879h-1.08594l.13184-3.74805h1.69727l.58789,2.6748,.58789-2.6748h1.67871l.13184,3.74805h-1.10938l-.01172-2.77051Z" style="fill:#fff;"/><path d="M15.37305,42.32169h-.2998v1.00781h-1.18164v-3.74805h1.55957c1.06152,0,1.66699,.54004,1.66699,1.34375,0,.89941-.59961,1.39648-1.74512,1.39648Zm-.01172-1.84082h-.32422v.97754l.2998-.00586c.41992-.00586,.61133-.17383,.61133-.50391,0-.30566-.20312-.46777-.58691-.46777Z" style="fill:#fff;"/><path d="M21.20996,43.32951h-1.16895l-.23438-.70117h-1.27051l-.22266,.70117h-1.16309l1.28906-3.74805h1.50586l1.26465,3.74805Zm-2.02637-2.90234l-.41992,1.31348h.81543l-.39551-1.31348Z" style="fill:#fff;"/><path d="M21.66211,43.32951v-3.74805h1.18164v3.74805h-1.18164Z" style="fill:#fff;"/><path d="M25.59082,43.41935c-1.25391,0-2.08691-.68945-2.08691-1.94922,0-1.24707,.79785-1.97852,2.09863-1.97852,.50391,0,1.10938,.10156,1.49316,.32422l-.36523,.9707c-.39062-.21582-.73242-.30566-1.08008-.30566-.60547,0-.97168,.39551-.97168,.96582,0,.65918,.28809,1.02539,.94824,1.02539,.16211,0,.36523-.02441,.48535-.07227v-.37793h-.85742v-.90527h1.90723v1.96094c-.41406,.20996-.9541,.3418-1.57129,.3418Z" style="fill:#fff;"/><path d="M30.58594,39.58146h1.09766v3.78418h-1.25293l-1.34961-2.15918v2.12305h-1.09766v-3.74805h1.27148l1.33105,2.12891v-2.12891Z" style="fill:#fff;"/><path d="M33.7832,39.58146h2.31445v.47949h-1.80469v1.21777h1.49316v.47363h-1.49316v1.57715h-.50977v-3.74805Z" style="fill:#fff;"/><path d="M38.47461,43.41935c-1.09766,0-1.88379-.76758-1.88379-1.95508,0-1.12109,.78027-1.97266,1.88379-1.97266,1.09668,0,1.88281,.76172,1.88281,1.94922,0,1.12109-.7793,1.97852-1.88281,1.97852Zm-.0127-3.47168c-.79688,0-1.35449,.59375-1.35449,1.49316,0,.92285,.55762,1.52246,1.37891,1.52246,.79785,0,1.36133-.59961,1.36133-1.49902,0-.92285-.56348-1.5166-1.38574-1.5166Z" style="fill:#fff;"/><path d="M41.76465,43.32951h-.50977v-3.74805h1.12109c.90625,0,1.37988,.43164,1.37988,1.09766,0,.56348-.33008,.91113-.8457,1.0791l1.01367,1.57129h-.60645l-.91113-1.4873-.6416,.04199v1.44531Zm.61816-1.91309c.49121-.01758,.86328-.25195,.86328-.71387,0-.44336-.36035-.65332-.92969-.65332h-.55176v1.38574l.61816-.01855Z" style="fill:#fff;"/><path d="M47.78516,40.54728v2.78223h-1.18164v-2.78223h-1.13379v-.96582h3.44824v.96582h-1.13281Z" style="fill:#fff;"/><path d="M51.91113,43.32951v-1.39746h-1.22363v1.39746h-1.18164v-3.74805h1.18164v1.36719h1.22363v-1.36719h1.18066v3.74805h-1.18066Z" style="fill:#fff;"/><path d="M53.97461,43.32951v-3.74805h2.92676v.91797h-1.77539v.49121h1.40332v.91797h-1.40332v.50293h1.77539v.91797h-2.92676Z" style="fill:#fff;"/><path d="M62.66309,39.58146h1.09766v3.78418h-1.25293l-1.34961-2.15918v2.12305h-1.09766v-3.74805h1.27148l1.33105,2.12891v-2.12891Z" style="fill:#fff;"/><path d="M68.33203,43.32951h-1.16895l-.23438-.70117h-1.27051l-.22266,.70117h-1.16309l1.28906-3.74805h1.50586l1.26465,3.74805Zm-2.02637-2.90234l-.41992,1.31348h.81543l-.39551-1.31348Z" style="fill:#fff;"/><path d="M70.63672,40.54728v2.78223h-1.18164v-2.78223h-1.13379v-.96582h3.44824v.96582h-1.13281Z" style="fill:#fff;"/><path d="M72.36035,43.32951v-3.74805h1.18163v3.74805h-1.18163Z" style="fill:#fff;"/><path d="M76.25879,43.41935c-1.12207,0-1.99707-.64746-1.99707-1.95508,0-1.22266,.89355-1.97266,2.01465-1.97266s1.99707,.6416,1.99707,1.94922c0,1.22266-.89355,1.97852-2.01465,1.97852Zm0-2.99805c-.5459,0-.80957,.41992-.80957,1.01953,0,.61719,.28125,1.04883,.82715,1.04883,.54004,0,.80957-.42578,.80957-1.02539,0-.61719-.28125-1.04297-.82715-1.04297Z" style="fill:#fff;"/><path d="M81.58984,39.58146h1.09766v3.78418h-1.25293l-1.34961-2.15918v2.12305h-1.09766v-3.74805h1.27148l1.33105,2.12891v-2.12891Z" style="fill:#fff;"/><path d="M87.25781,43.32951h-1.16895l-.23438-.70117h-1.27051l-.22266,.70117h-1.16309l1.28906-3.74805h1.50586l1.26465,3.74805Zm-2.02637-2.90234l-.41992,1.31348h.81543l-.39551-1.31348Z" style="fill:#fff;"/><path d="M87.76855,43.32951v-3.74805h1.18164v2.78223h1.44531v.96582h-2.62695Z" style="fill:#fff;"/><path d="M95.85352,40.559l-.6543,2.71094h-1.2832l-.65918-2.69922-.01172,2.75879h-1.08594l.13184-3.74805h1.69727l.58789,2.6748,.58789-2.6748h1.67871l.13184,3.74805h-1.10938l-.01172-2.77051Z" style="fill:#fff;"/><path d="M99.48633,43.41935c-.99512,0-1.74512-.43164-1.74512-1.56543v-2.27246h1.18164v2.12891c0,.50391,.17383,.7373,.58203,.7373,.38965,0,.55176-.18555,.55176-.70703v-2.15918h1.1748v2.17676c0,1.15723-.71973,1.66113-1.74512,1.66113Z" style="fill:#fff;"/><path d="M103.87891,42.25041c0-.18066-.26367-.23438-.70215-.36035-.55176-.15527-1.24707-.41992-1.24707-1.18066,0-.73242,.50977-1.21191,1.53516-1.21191,.66602,0,1.15137,.15039,1.51172,.33008l-.18652,.96582c-.41992-.2041-.92969-.3418-1.31934-.3418-.22754,0-.35938,.04785-.35938,.19727,0,.17383,.35938,.25781,.73145,.36035,.59375,.16797,1.2168,.42578,1.2168,1.14453,0,.75-.56348,1.26562-1.64844,1.26562-.61816,0-1.19922-.14941-1.54102-.33594l.17969-.96484c.40137,.19727,.90527,.34766,1.37891,.34766,.27051,0,.4502-.06055,.4502-.21582Z" style="fill:#fff;"/><path d="M105.79102,43.32951v-3.74805h2.92676v.91797h-1.77539v.49121h1.40332v.91797h-1.40332v.50293h1.77539v.91797h-2.92676Z" style="fill:#fff;"/><path d="M111.19922,43.41935c-.99512,0-1.74512-.43164-1.74512-1.56543v-2.27246h1.18164v2.12891c0,.50391,.17383,.7373,.58203,.7373,.38965,0,.55176-.18555,.55176-.70703v-2.15918h1.1748v2.17676c0,1.15723-.71973,1.66113-1.74512,1.66113Z" style="fill:#fff;"/><path d="M117.39453,40.559l-.6543,2.71094h-1.2832l-.65918-2.69922-.01172,2.75879h-1.08594l.13184-3.74805h1.69727l.58789,2.6748,.58789-2.6748h1.67871l.13184,3.74805h-1.10938l-.01172-2.77051Z" style="fill:#fff;"/><path d="M1.94922,48.91935c-1.09766,0-1.88379-.76758-1.88379-1.95508,0-1.12109,.78027-1.97266,1.88379-1.97266,1.09668,0,1.88281,.76172,1.88281,1.94922,0,1.12109-.7793,1.97852-1.88281,1.97852Zm-.0127-3.47168c-.79688,0-1.35449,.59375-1.35449,1.49316,0,.92285,.55762,1.52246,1.37891,1.52246,.79785,0,1.36133-.59961,1.36133-1.49902,0-.92285-.56348-1.5166-1.38574-1.5166Z" style="fill:#fff;"/><path d="M4.72852,45.08146h2.31445v.47949h-1.80469v1.21777h1.49316v.47363h-1.49316v1.57715h-.50977v-3.74805Z" style="fill:#fff;"/><path d="M12.56641,48.82951h-1.16895l-.23438-.70117h-1.27051l-.22266,.70117h-1.16309l1.28906-3.74805h1.50586l1.26465,3.74805Zm-2.02637-2.90234l-.41992,1.31348h.81543l-.39551-1.31348Z" style="fill:#fff;"/><path d="M13.0791,45.08146h2.86621v.94727h-1.70312v.54004h1.33203v.93555h-1.33203v1.3252h-1.16309v-3.74805Z" style="fill:#fff;"/><path d="M17.76465,48.82951h-1.18164v-3.74805h1.69727c1.04297,0,1.59473,.47949,1.59473,1.22949,0,.47363-.2334,.88184-.73145,1.0791l.92969,1.43945h-1.30762l-.6709-1.13965-.33008,.03027v1.10938Zm.38379-1.95508c.35938-.03613,.50391-.17383,.50391-.47949,0-.27637-.16211-.41406-.58789-.41406h-.32422v.89941l.4082-.00586Z" style="fill:#fff;"/><path d="M20.6543,48.82951v-3.74805h1.18164v3.74805h-1.18164Z" style="fill:#fff;"/><path d="M25.56641,46.23283c-.25195-.14941-.60059-.25195-.90039-.25195-.56934,0-.92285,.37207-.92285,.96582,0,.60547,.31738,.9834,.92285,.9834,.34863,0,.66016-.10156,.9541-.27637l.25781,1.01367c-.28809,.15039-.82812,.25195-1.27148,.25195-1.25293,0-2.05078-.65332-2.05078-1.94922,0-1.2168,.78516-1.97852,2.09863-1.97852,.47363,0,.91211,.1084,1.26562,.26367l-.35352,.97754Z" style="fill:#fff;"/><path d="M30.34766,48.82951h-1.16895l-.23438-.70117h-1.27051l-.22266,.70117h-1.16309l1.28906-3.74805h1.50586l1.26465,3.74805Zm-2.02637-2.90234l-.41992,1.31348h.81543l-.39551-1.31348Z" style="fill:#fff;"/><path d="M33.46289,45.08146h1.09766v3.78418h-1.25293l-1.34961-2.15918v2.12305h-1.09766v-3.74805h1.27148l1.33105,2.12891v-2.12891Z" style="fill:#fff;"/><path d="M40.25195,48.82951h-1.16895l-.23438-.70117h-1.27051l-.22266,.70117h-1.16309l1.28906-3.74805h1.50586l1.26465,3.74805Zm-2.02637-2.90234l-.41992,1.31348h.81543l-.39551-1.31348Z" style="fill:#fff;"/><path d="M44.41211,46.059l-.6543,2.71094h-1.2832l-.65918-2.69922-.01172,2.75879h-1.08594l.13184-3.74805h1.69727l.58789,2.6748,.58789-2.6748h1.67871l.13184,3.74805h-1.10938l-.01172-2.77051Z" style="fill:#fff;"/><path d="M46.35156,48.82951v-3.74805h2.92676v.91797h-1.77539v.49121h1.40332v.91797h-1.40332v.50293h1.77539v.91797h-2.92676Z" style="fill:#fff;"/><path d="M51.25781,48.82951h-1.18164v-3.74805h1.69727c1.04297,0,1.59473,.47949,1.59473,1.22949,0,.47363-.2334,.88184-.73145,1.0791l.92969,1.43945h-1.30762l-.6709-1.13965-.33008,.03027v1.10938Zm.38379-1.95508c.35938-.03613,.50391-.17383,.50391-.47949,0-.27637-.16211-.41406-.58789-.41406h-.32422v.89941l.4082-.00586Z" style="fill:#fff;"/><path d="M54.14844,48.82951v-3.74805h1.18164v3.74805h-1.18164Z" style="fill:#fff;"/><path d="M59.05957,46.23283c-.25195-.14941-.60059-.25195-.90039-.25195-.56934,0-.92285,.37207-.92285,.96582,0,.60547,.31738,.9834,.92285,.9834,.34863,0,.66016-.10156,.9541-.27637l.25781,1.01367c-.28809,.15039-.82812,.25195-1.27148,.25195-1.25293,0-2.05078-.65332-2.05078-1.94922,0-1.2168,.78516-1.97852,2.09863-1.97852,.47363,0,.91211,.1084,1.26562,.26367l-.35352,.97754Z" style="fill:#fff;"/><path d="M63.8418,48.82951h-1.16895l-.23438-.70117h-1.27051l-.22266,.70117h-1.16309l1.28906-3.74805h1.50586l1.26465,3.74805Zm-2.02637-2.90234l-.41992,1.31348h.81543l-.39551-1.31348Z" style="fill:#fff;"/><path d="M66.95605,45.08146h1.09766v3.78418h-1.25293l-1.34961-2.15918v2.12305h-1.09766v-3.74805h1.27148l1.33105,2.12891v-2.12891Z" style="fill:#fff;"/><path d="M72.43262,48.82951v-1.39746h-1.22363v1.39746h-1.18164v-3.74805h1.18164v1.36719h1.22363v-1.36719h1.18066v3.74805h-1.18066Z" style="fill:#fff;"/><path d="M74.49805,48.82951v-3.74805h1.18164v3.74805h-1.18164Z" style="fill:#fff;"/><path d="M78.3877,47.75041c0-.18066-.26367-.23438-.70215-.36035-.55176-.15527-1.24707-.41992-1.24707-1.18066,0-.73242,.50977-1.21191,1.53516-1.21191,.66602,0,1.15137,.15039,1.51074,.33008l-.18555,.96582c-.41992-.2041-.92969-.3418-1.31934-.3418-.22754,0-.35938,.04785-.35938,.19727,0,.17383,.35938,.25781,.73145,.36035,.59375,.16797,1.2168,.42578,1.2168,1.14453,0,.75-.56348,1.26562-1.64844,1.26562-.61816,0-1.19922-.14941-1.54102-.33594l.17969-.96484c.40137,.19727,.90527,.34766,1.37891,.34766,.27051,0,.4502-.06055,.4502-.21582Z" style="fill:#fff;"/><path d="M82.35156,46.04728v2.78223h-1.18164v-2.78223h-1.13379v-.96582h3.44824v.96582h-1.13281Z" style="fill:#fff;"/><path d="M85.92676,48.91935c-1.12207,0-1.99707-.64746-1.99707-1.95508,0-1.22266,.89355-1.97266,2.01465-1.97266s1.99707,.6416,1.99707,1.94922c0,1.22266-.89355,1.97852-2.01465,1.97852Zm0-2.99805c-.5459,0-.80957,.41992-.80957,1.01953,0,.61719,.28125,1.04883,.82715,1.04883,.54004,0,.80957-.42578,.80957-1.02539,0-.61719-.28125-1.04297-.82715-1.04297Z" style="fill:#fff;"/><path d="M89.84082,48.82951h-1.18164v-3.74805h1.69727c1.04297,0,1.59473,.47949,1.59473,1.22949,0,.47363-.2334,.88184-.73145,1.0791l.92969,1.43945h-1.30762l-.6709-1.13965-.33008,.03027v1.10938Zm.38379-1.95508c.35938-.03613,.50391-.17383,.50391-.47949,0-.27637-.16211-.41406-.58789-.41406h-.32422v.89941l.4082-.00586Z" style="fill:#fff;"/><path d="M94.72754,47.44474v1.38477h-1.15723v-1.3916l-1.30762-2.35645h1.23535l.66016,1.34375,.63574-1.34375h1.23535l-1.30176,2.36328Z" style="fill:#fff;"/><path d="M98.64453,48.91935c-.72559,0-1.13965-.47949-1.13965-1.05566,0-.49707,.4082-.875,.91209-1.0127-.41405-.22266-.61815-.50391-.61815-.88184,0-.47363,.40234-.97168,1.11523-.97168,.67188,0,1.02539,.44434,1.02539,.91797,0,.40137-.30566,.71289-.71289,.88086,.22168,.1084,.5332,.38379,.7793,.66602l.5752-.89941h.57617l-.91797,1.16895,.91211,1.09766-.53418,.08984-.65918-.8457c-.35449,.50977-.78613,.8457-1.31348,.8457Zm.06641-1.91895c-.4082,.19238-.70215,.46191-.70215,.82129,0,.36035,.25195,.66602,.70215,.66602,.38965,0,.74316-.26367,1.03125-.67773-.33008-.37793-.68945-.68945-1.03125-.80957Zm.74316-1.04297c0-.3125-.22754-.54004-.58203-.54004-.35938,0-.56934,.24609-.56934,.51562,0,.3418,.2041,.54004,.61133,.71387,.31836-.1377,.54004-.36035,.54004-.68945Z" style="fill:#fff;"/><path d="M105.59668,46.23283c-.25195-.14941-.60059-.25195-.90039-.25195-.56934,0-.92285,.37207-.92285,.96582,0,.60547,.31738,.9834,.92285,.9834,.34863,0,.66016-.10156,.9541-.27637l.25781,1.01367c-.28809,.15039-.82812,.25195-1.27148,.25195-1.25293,0-2.05078-.65332-2.05078-1.94922,0-1.2168,.78516-1.97852,2.09863-1.97852,.47363,0,.91211,.1084,1.26562,.26367l-.35352,.97754Z" style="fill:#fff;"/><path d="M108.27344,48.91935c-.99512,0-1.74512-.43164-1.74512-1.56543v-2.27246h1.18164v2.12891c0,.50391,.17383,.7373,.58202,.7373,.38966,0,.55177-.18555,.55177-.70703v-2.15918h1.1748v2.17676c0,1.15723-.71973,1.66113-1.74512,1.66113Z" style="fill:#fff;"/><path d="M110.86719,48.82951v-3.74805h1.18164v2.78223h1.44531v.96582h-2.62695Z" style="fill:#fff;"/><path d="M115.81152,46.04728v2.78223h-1.18164v-2.78223h-1.13379v-.96582h3.44824v.96582h-1.13281Z" style="fill:#fff;"/><path d="M119.25781,48.91935c-.99512,0-1.74512-.43164-1.74512-1.56543v-2.27246h1.18164v2.12891c0,.50391,.17383,.7373,.58203,.7373,.38965,0,.55176-.18555,.55176-.70703v-2.15918h1.1748v2.17676c0,1.15723-.71973,1.66113-1.74512,1.66113Z" style="fill:#fff;"/><path d="M123.0332,48.82951h-1.18164v-3.74805h1.69727c1.04297,0,1.59473,.47949,1.59473,1.22949,0,.47363-.2334,.88184-.73145,1.0791l.92969,1.43945h-1.30762l-.6709-1.13965-.33008,.03027v1.10938Zm.38377-1.95508c.35939-.03613,.50392-.17383,.50392-.47949,0-.27637-.16211-.41406-.58789-.41406h-.32422v.89941l.40819-.00586Z" style="fill:#fff;"/><path d="M125.92285,48.82951v-3.74805h2.92676v.91797h-1.77539v.49121h1.40332v.91797h-1.40332v.50293h1.77539v.91797h-2.92676Z" style="fill:#fff;"/></g><g><path d="M72.45801,10.70841v13.32031h-1.72656v-6.08789h-1.41797v6.08789h-1.72656V10.70841h1.72656v5.56055h1.41797v-5.56055h1.72656Z" style="fill:#fff;"/><path d="M74.18164,10.70841h1.72656v13.32031h-1.72656V10.70841Z" style="fill:#fff;"/><path d="M80.45117,14.85197v-2.05371c0-.23633-.18164-.41797-.41797-.41797h-.72754c-.23633,0-.41797,.18164-.41797,.41797v1.41699c0,.43652,.16406,.70898,.3457,.90918l2.16211,2.41699c.47266,.52637,.78223,1.08984,.78223,1.94434v2.94434c0,.87207-.72754,1.59863-1.59961,1.59863h-1.81738c-.87207,0-1.59961-.72656-1.59961-1.59863v-2.70801h1.72656v2.2168c0,.23633,.18164,.41797,.41797,.41797h.72754c.23633,0,.41797-.18164,.41797-.41797v-2.27148c0-.3457-.14551-.67285-.3457-.9082l-2.34375-2.65332c-.41797-.47266-.60059-.96387-.60059-1.94531v-1.85352c0-.87207,.72754-1.59863,1.59961-1.59863h1.81738c.87207,0,1.59961,.72656,1.59961,1.59863v2.54492h-1.72656Z" style="fill:#fff;"/><path d="M84.33789,24.02873V12.38029h-1.54492v-1.67188h4.81641v1.67188h-1.54492v11.64844h-1.72656Z" style="fill:#fff;"/><path d="M89.89746,24.02873c-.87207,0-1.59961-.72656-1.59961-1.59863V12.30705c0-.87207,.72754-1.59863,1.59961-1.59863h1.81738c.87207,0,1.59961,.72656,1.59961,1.59863v10.12305c0,.87207-.72754,1.59863-1.59961,1.59863h-1.81738Zm.12695-2.08984c0,.23633,.18164,.41797,.41797,.41797h.72754c.23633,0,.41797-.18164,.41797-.41797V12.79826c0-.23633-.18164-.41797-.41797-.41797h-.72754c-.23633,0-.41797,.18164-.41797,.41797v9.14062Z" style="fill:#fff;"/><path d="M94.71094,10.70841h3.41699c.87207,0,1.59961,.72656,1.59961,1.59863v3.94336c0,.70898-.30957,1.30859-.94531,1.52734l1.74414,6.25098h-1.85352l-1.61719-6.08789h-.61816v6.08789h-1.72656V10.70841Zm3.29004,2.08984c0-.23633-.18164-.41797-.41797-.41797h-1.14551v3.88867h1.14551c.23633,0,.41797-.18164,.41797-.41797v-3.05273Z" style="fill:#fff;"/><path d="M104.01465,24.02873h-1.72656v-5.36133l-1.92578-7.95898h1.7627l.99902,5.05176h.03711l.99902-5.05176h1.7627l-1.9082,7.95898v5.36133Z" style="fill:#fff;"/></g><path d="M30.74806,27.90166l-9.51698,3.96059V0l9.48216,3.86497,.03482,24.03669ZM9.6135,3.0051L.13134,0V31.86225l9.51698-3.06632-.03482-25.79083Zm10.49479,0L10.62613,0V31.86225l9.51698-3.06632-.03482-25.79083Z" style="fill:url(#b);"/><path d="M31.73213,3.86497L41.21429,0V31.86225l-9.51698-3.96059,.03482-24.03669Zm21.06491,24.93096l9.51698,3.06632V0l-9.48216,3.0051-.03482,25.79083Zm-10.49479,0l9.51698,3.06632V0l-9.48216,3.0051-.03482,25.79083Z" style="fill:url(#c);"/><g><path d="M3.30176,9.8715h1.79883v12.1377h2.55566v1.74219H3.30176V9.8715Z" style="fill:#fff;"/><path d="M14.3623,9.8715h1.79883v13.87988h-1.79883V9.8715Z" style="fill:#fff;"/><path d="M23.13086,9.8715h1.83691l1.06055,9.33496h.03809l1.04102-9.33496h1.78027l-1.76172,13.87988h-2.23438l-1.76074-13.87988Z" style="fill:#fff;"/><path d="M35.25195,9.8715h1.79883v13.87988h-1.79883V9.8715Z" style="fill:#fff;"/><path d="M44.45605,23.75138V9.8715h1.60938l1.87402,7.80176h.01953l-.07617-2.85938v-4.94238h1.7041v13.87988h-1.60938l-1.87402-7.80176h-.01953l.07617,2.85938v4.94238h-1.7041Z" style="fill:#fff;"/><path d="M60.21094,16.49845v5.58691c0,.9082-.75684,1.66602-1.66602,1.66602h-1.89355c-.90918,0-1.66602-.75781-1.66602-1.66602V11.53751c0-.90918,.75684-1.66602,1.66602-1.66602h1.85547c.90918,0,1.66699,.75684,1.66699,1.66602v3.46582h-1.76172v-2.9541c0-.24609-.18945-.43555-.43555-.43555h-.75684c-.24609,0-.43555,.18945-.43555,.43555v9.52441c0,.24609,.18945,.43555,.43555,.43555h.75684c.24609,0,.43555-.18945,.43555-.43555v-3.35156h-.85156v-1.72363h2.65039Z" style="fill:#fff;"/></g></svg>