<svg id="Layer_1" data-name="Layer 1" xmlns="http://www.w3.org/2000/svg" width="159.03" height="40" viewBox="0 0 159.03 40"><defs><style>.cls-1{fill:#fff;}</style></defs><title>smithsonian-logo</title><path class="cls-1" d="M33.37,27.73a8.11,8.11,0,0,0-4.87-2.22l2.67,4.07,3,4.56-8.63-5.66h0a4.91,4.91,0,0,1,1.12,4.84c-1.09,4.15,2.19,4.51,2.19,4.51C26.74,39.09,24,37.14,24,34.92a8.2,8.2,0,0,0-1.87-5L20,40,17.9,29.9h0a4.89,4.89,0,0,1-2.64,4.19c-3.71,2.16-1.65,4.74-1.65,4.74-2.35-.61-2.91-3.89-1.36-5.49a8.19,8.19,0,0,0,2.22-4.87L5.84,34.12l5.65-8.63h0a4.92,4.92,0,0,1-4.84,1.12C2.5,25.52,2.14,28.8,2.14,28.8c-1.22-2.09.7-4.81,2.92-4.85a8.22,8.22,0,0,0,5-1.88L0,20l10.11-2.1h0A4.91,4.91,0,0,1,5.9,15.26c-2.16-3.71-4.74-1.64-4.74-1.64.61-2.35,3.89-2.91,5.49-1.36a8.11,8.11,0,0,0,4.87,2.22l-1-1.6-4.61-7,8.63,5.65h0a4.89,4.89,0,0,1-1.12-4.84c1.09-4.15-2.19-4.51-2.19-4.51C13.32.95,16,2.88,16.08,5.1a8.24,8.24,0,0,0,1.87,5h0L20,0l2,10.09a4.92,4.92,0,0,1,2.63-4.21c3.71-2.17,1.64-4.75,1.64-4.75,2.35.61,2.91,3.89,1.36,5.49a8.11,8.11,0,0,0-2.21,4.87h0L34.15,5.8l-5.66,8.63h0a4.91,4.91,0,0,1,4.88-1.09c4.15,1.09,4.51-2.18,4.51-2.18C39.1,13.24,37.19,16,35,16a8.14,8.14,0,0,0-5,1.87h0L40,20l-10.09,2.1h0a4.91,4.91,0,0,1,4.21,2.63c2.16,3.71,4.74,1.64,4.74,1.64C38.24,28.71,35,29.28,33.37,27.73Z"/><path class="cls-1" d="M55.86,13.17c-.37-1.38-1-2.91-2.89-2.91a2.25,2.25,0,0,0-2.37,2.36c0,1.54,1,2.28,2.77,3.18s3.81,2,3.81,4.38-2,4.21-5,4.21A6.85,6.85,0,0,1,50,24.06a7.54,7.54,0,0,1-1.14-.46,27.76,27.76,0,0,1-.59-3.46l.65-.18c.38,1.35,1.41,3.62,3.64,3.62A2.37,2.37,0,0,0,55.13,21c0-1.56-1.16-2.34-2.78-3.22s-3.66-1.93-3.66-4.34c0-2.17,1.73-4,4.6-4a9.93,9.93,0,0,1,2.8.5c.09.79.23,1.68.4,3.07Z"/><path class="cls-1" d="M70.37,24.09V23.5c1.23-.14,1.44-.24,1.44-1.75V18.08c0-1.6-.59-2.48-1.85-2.48a3.88,3.88,0,0,0-2.31,1,5.07,5.07,0,0,1,.07.92v4.29c0,1.36.2,1.49,1.36,1.62v.6H64.37V23.5c1.29-.14,1.47-.24,1.47-1.65V18c0-1.6-.59-2.43-1.84-2.43a3.83,3.83,0,0,0-2.26,1V21.8c0,1.38.17,1.51,1.21,1.65v.61H58.21V23.5c1.4-.14,1.6-.24,1.6-1.66V17.25c0-1.36-.06-1.49-1.29-1.69v-.48a15.61,15.61,0,0,0,3.2-.9V16c.46-.33.91-.71,1.55-1.09a3.47,3.47,0,0,1,1.81-.61,2.62,2.62,0,0,1,2.45,1.8c.64-.46,1.25-.88,1.77-1.23A3.24,3.24,0,0,1,71,14.26c1.75,0,2.84,1.23,2.84,3.38V21.9c0,1.43.12,1.49,1.38,1.65v.54Z"/><path class="cls-1" d="M76.51,24.09V23.5c1.36-.14,1.51-.24,1.51-1.75v-4.5c0-1.36-.09-1.47-1.33-1.67v-.49a16.56,16.56,0,0,0,3.26-.86V21.8c0,1.49.13,1.62,1.53,1.75v.57Zm1.16-12.86A1.22,1.22,0,0,1,78.87,10h0a1.21,1.21,0,1,1-1.2,1.22Z"/><path class="cls-1" d="M86.52,24.09a2.07,2.07,0,0,1-.9.29c-1.44,0-2.25-.85-2.25-2.62v-6.4H81.89l-.11-.24.61-.65h1V12.88L85,11.37l.29.07v3h2.42a.61.61,0,0,1-.1.86H85.34v5.6c0,1.75.74,2.06,1.29,2.06a3,3,0,0,0,1.31-.33l.2.59Z"/><path class="cls-1" d="M95.29,24.09V23.5c1.23-.14,1.38-.27,1.38-1.66v-3.7c0-1.79-.7-2.63-2-2.63a2.86,2.86,0,0,0-2.14,1V21.8c0,1.38.1,1.53,1.33,1.66v.65H89.1V23.5c1.29-.14,1.48-.24,1.48-1.69V11.37c0-1.39-.07-1.45-1.46-1.58V9.24a25,25,0,0,0,3.39-.74v7.3a4.73,4.73,0,0,1,3.08-1.56c1.8,0,3,1.14,3,3.72V21.8c0,1.42.16,1.53,1.4,1.66v.61Z"/><path class="cls-1" d="M106.9,17.08c-.43-1.31-1.18-2.19-2.25-2.19a1.37,1.37,0,0,0-1.38,1.36h0v.08c0,.92.81,1.45,1.81,1.87,1.69.71,2.82,1.5,2.82,3,0,2-1.89,3-3.69,3a4.64,4.64,0,0,1-2.54-.72,10.34,10.34,0,0,1-.37-2.67l.59-.08c.42,1.44,1.4,2.76,2.72,2.76a1.47,1.47,0,0,0,1.5-1.41c0-.9-.57-1.43-1.74-2s-2.76-1.35-2.76-3.07,1.34-2.89,3.4-2.89a4.73,4.73,0,0,1,2,.4,16.49,16.49,0,0,1,.48,2.37Z"/><path class="cls-1" d="M118.94,19.09a4.87,4.87,0,0,1-4.52,5.2h-.28a4.75,4.75,0,0,1-4.87-4.63h0v-.21a5,5,0,0,1,4.7-5.28h.21a4.77,4.77,0,0,1,4.76,4.78h0Zm-7.43-.35c0,2.76,1.12,4.82,2.87,4.82,1.25,0,2.33-.92,2.33-4,0-2.65-1-4.67-2.84-4.67-1.24.06-2.36,1.38-2.36,3.88Z"/><path class="cls-1" d="M126.2,24.09V23.5c1.23-.14,1.37-.29,1.37-1.82V18c0-1.51-.57-2.41-1.88-2.41a3.61,3.61,0,0,0-2.27,1V21.8c0,1.47.14,1.56,1.34,1.69v.61h-4.85v-.6c1.47-.16,1.57-.27,1.57-1.72V17.25c0-1.4-.14-1.47-1.3-1.69v-.48a14.52,14.52,0,0,0,3.23-.9v1.73c.44-.31.9-.66,1.44-1a3.15,3.15,0,0,1,1.81-.66c1.75,0,2.83,1.25,2.83,3.38V21.8c0,1.47.13,1.53,1.36,1.69V24Z"/><path class="cls-1" d="M132.18,24.09V23.5c1.35-.14,1.51-.24,1.51-1.75v-4.5c0-1.36-.09-1.47-1.34-1.67v-.49a16.51,16.51,0,0,0,3.27-.86V21.8c0,1.49.14,1.62,1.53,1.75v.57Zm1.19-12.87a1.22,1.22,0,0,1,1.2-1.24h0a1.21,1.21,0,1,1-1.2,1.22Z"/><path class="cls-1" d="M145,24.34a1.67,1.67,0,0,1-1.08-.43,2.3,2.3,0,0,1-.55-1,6.79,6.79,0,0,1-2.52,1.38,2.71,2.71,0,0,1-2.71-2.7,2.17,2.17,0,0,1,1.77-2.14,16.82,16.82,0,0,0,3.45-1.37v-.42c0-1.56-.7-2.44-1.75-2.44a1.18,1.18,0,0,0-.94.42,3.78,3.78,0,0,0-.66,1.44.65.65,0,0,1-.69.55,1.1,1.1,0,0,1-1-1c0-.33.27-.6.73-.93a10.47,10.47,0,0,1,3.31-1.53,3,3,0,0,1,1.87.59,3.25,3.25,0,0,1,1,2.75v4c0,1,.37,1.29.77,1.29a1.55,1.55,0,0,0,.77-.21l.21.59Zm-1.64-5.54c-.46.24-1.39.65-1.84.87-.82.39-1.27.79-1.27,1.6a1.56,1.56,0,0,0,1.45,1.66h.06a2.62,2.62,0,0,0,1.6-.7Z"/><path class="cls-1" d="M154.37,24.09V23.5c1.23-.14,1.37-.29,1.37-1.82V18c0-1.51-.57-2.41-1.88-2.41a3.65,3.65,0,0,0-2.26,1V21.8c0,1.47.14,1.56,1.34,1.69v.61h-4.85v-.6c1.47-.16,1.58-.27,1.58-1.72V17.25c0-1.4-.13-1.47-1.29-1.69v-.48a14.43,14.43,0,0,0,3.22-.9v1.73c.44-.31.9-.66,1.45-1a3.13,3.13,0,0,1,1.8-.66c1.75,0,2.83,1.25,2.83,3.38V21.8c0,1.47.12,1.53,1.35,1.69V24Z"/></svg>